<svg width="117" height="19" viewBox="0 0 117 19" fill="none" xmlns="http://www.w3.org/2000/svg">
<path d="M4.63372 18.6572L0.552133 0.303421H5.16726L7.80829 13.4018H8.02171L11.0095 0.303421H15.8114L18.8526 13.4018H19.066L21.4936 0.303421H26.1087L22.0272 18.6572H16.2116L13.4105 7.07939H13.2237L10.4493 18.6572H4.63372ZM25.9285 18.6572L31.7441 0.303421H38.0665L43.9088 18.6572H39.2136L38.1199 15.0558H31.584L30.5169 18.6572H25.9285ZM32.571 11.5611H37.1061L34.9186 4.30498H34.7319L32.571 11.5611ZM46.2945 18.6572V0.303421H51.0697L57.0454 10.1473H57.1787V0.303421H61.6338V18.6572H57.2854L50.883 7.90638H50.7496V18.6572H46.2945ZM65.6833 18.6572V0.303421H70.3251V18.6572H65.6833ZM82.1799 18.8706C80.8105 18.8706 79.6545 18.7817 78.7119 18.6039C77.7693 18.426 76.9868 18.1326 76.3643 17.7235C75.7419 17.2967 75.2528 16.7276 74.8971 16.0162C74.5592 15.287 74.3191 14.3889 74.1768 13.3218C74.0523 12.2547 73.9901 10.9742 73.9901 9.48032C73.9901 7.98641 74.0523 6.70591 74.1768 5.63883C74.3191 4.57175 74.5681 3.68251 74.9238 2.97113C75.2795 2.24195 75.7685 1.67284 76.391 1.26379C77.0135 0.836961 77.796 0.534621 78.7386 0.356774C79.6812 0.178928 80.8283 0.0900043 82.1799 0.0900043C82.7846 0.0900043 83.4604 0.116681 84.2074 0.170036C84.9543 0.223389 85.6924 0.294528 86.4216 0.383451C87.1685 0.472376 87.8621 0.579084 88.5024 0.703576V4.03821C87.8977 3.94928 87.293 3.88704 86.6883 3.85147C86.1014 3.79811 85.559 3.75365 85.061 3.71808C84.5631 3.68251 84.154 3.66473 83.8339 3.66473C82.8735 3.66473 82.0821 3.68251 81.4596 3.71808C80.8372 3.75365 80.3303 3.86925 79.9391 4.06488C79.5478 4.24273 79.2543 4.53618 79.0587 4.94523C78.8631 5.35427 78.7297 5.93228 78.6586 6.67923C78.6052 7.40841 78.5785 8.3421 78.5785 9.48032C78.5785 10.4941 78.5963 11.3477 78.6319 12.0413C78.6852 12.7349 78.783 13.304 78.9253 13.7487C79.0854 14.1933 79.2988 14.5401 79.5656 14.7891C79.8501 15.0203 80.2147 15.1803 80.6593 15.2692C81.1217 15.3582 81.682 15.4026 82.34 15.4026C82.5534 15.4026 82.7846 15.4026 83.0336 15.4026C83.2826 15.3848 83.5227 15.3671 83.7539 15.3493C83.9851 15.3315 84.1807 15.3226 84.3408 15.3226V11.3477H81.7264V8.01309H88.5824V18.2837C87.9422 18.4082 87.2397 18.5149 86.4749 18.6039C85.7102 18.675 84.9543 18.7373 84.2074 18.7906C83.4604 18.844 82.7846 18.8706 82.1799 18.8706ZM99.9466 18.8706C98.3994 18.8706 97.1278 18.7817 96.1318 18.6039C95.1537 18.4082 94.3889 18.1059 93.8376 17.6969C93.2863 17.27 92.8772 16.7009 92.6104 15.9895C92.3615 15.2603 92.2014 14.3622 92.1303 13.2951C92.0769 12.2281 92.0502 10.9565 92.0502 9.48032C92.0502 8.00419 92.0769 6.73259 92.1303 5.66551C92.2014 4.59842 92.3615 3.70919 92.6104 2.9978C92.8772 2.26863 93.2863 1.69952 93.8376 1.29047C94.3889 0.863639 95.1537 0.561299 96.1318 0.383451C97.1278 0.18782 98.3994 0.0900043 99.9466 0.0900043C101.476 0.0900043 102.73 0.18782 103.708 0.383451C104.704 0.561299 105.487 0.863639 106.056 1.29047C106.625 1.69952 107.034 2.26863 107.283 2.9978C107.532 3.70919 107.692 4.59842 107.763 5.66551C107.834 6.73259 107.87 8.00419 107.87 9.48032C107.87 10.9565 107.834 12.2281 107.763 13.2951C107.692 14.3622 107.532 15.2603 107.283 15.9895C107.034 16.7009 106.625 17.27 106.056 17.6969C105.487 18.1059 104.704 18.4082 103.708 18.6039C102.73 18.7817 101.476 18.8706 99.9466 18.8706ZM99.9466 15.2959C100.587 15.2959 101.103 15.2781 101.494 15.2426C101.903 15.1892 102.223 15.0736 102.454 14.8958C102.685 14.7001 102.854 14.3978 102.961 13.9887C103.068 13.5797 103.13 13.0106 103.148 12.2814C103.183 11.5522 103.201 10.6185 103.201 9.48032C103.201 8.3421 103.183 7.40841 103.148 6.67923C103.13 5.95006 103.068 5.38095 102.961 4.9719C102.854 4.56286 102.685 4.26941 102.454 4.09156C102.223 3.89593 101.903 3.78033 101.494 3.74476C101.103 3.69141 100.587 3.66473 99.9466 3.66473C99.3242 3.66473 98.8084 3.69141 98.3994 3.74476C97.9903 3.78033 97.6702 3.89593 97.439 4.09156C97.2078 4.26941 97.0388 4.56286 96.9321 4.9719C96.8254 5.38095 96.7543 5.95006 96.7187 6.67923C96.7009 7.40841 96.692 8.3421 96.692 9.48032C96.692 10.6185 96.7009 11.5522 96.7187 12.2814C96.7543 13.0106 96.8254 13.5797 96.9321 13.9887C97.0388 14.3978 97.2078 14.7001 97.439 14.8958C97.6702 15.0736 97.9903 15.1892 98.3994 15.2426C98.8084 15.2781 99.3242 15.2959 99.9466 15.2959ZM112.622 12.4415C112.533 11.5522 112.444 10.6452 112.355 9.72042C112.266 8.77783 112.177 7.87081 112.088 6.99936C112.017 6.12791 111.955 5.3276 111.901 4.59843C111.848 3.85147 111.803 3.21122 111.768 2.67768C111.75 2.12635 111.741 1.7262 111.741 1.47721V0.303421H116.676V1.47721C116.676 1.7262 116.659 2.12635 116.623 2.67768C116.605 3.21122 116.57 3.85147 116.516 4.59843C116.463 5.3276 116.392 6.12791 116.303 6.99936C116.232 7.87081 116.152 8.77783 116.063 9.72042C115.974 10.6452 115.885 11.5522 115.796 12.4415H112.622ZM111.928 18.6572V14.7891H116.49V18.6572H111.928Z" fill="url(#paint0_linear_1807_9389)"/>
<defs>
<linearGradient id="paint0_linear_1807_9389" x1="59.6642" y1="19.6627" x2="59.6642" y2="-0.051245" gradientUnits="userSpaceOnUse">
<stop stop-color="#004DFF"/>
<stop offset="1" stop-color="#009CFF"/>
</linearGradient>
</defs>
</svg>
