<svg width="170" height="170" viewBox="0 0 170 170" fill="none" xmlns="http://www.w3.org/2000/svg">
<g id="vuesax/bulk/bag-cross">
<g id="bag-cross">
<path id="Vector" opacity="0.4" d="M136.284 39.5255H133.45L109.509 15.5838C107.596 13.6713 104.479 13.6713 102.496 15.5838C100.584 17.4963 100.584 20.613 102.496 22.5963L119.425 39.5255H50.5753L67.5045 22.5963C69.417 20.6838 69.417 17.5671 67.5045 15.5838C65.592 13.6713 62.4753 13.6713 60.492 15.5838L36.6212 39.5255H33.7878C27.4128 39.5255 14.167 39.5255 14.167 57.6588C14.167 64.5296 15.5837 69.063 18.5587 72.038C20.2587 73.8088 22.3128 74.7296 24.5087 75.2255C26.5628 75.7213 28.7587 75.7921 30.8837 75.7921H139.117C141.313 75.7921 143.367 75.6505 145.35 75.2255C151.3 73.8088 155.834 69.5588 155.834 57.6588C155.834 39.5255 142.588 39.5255 136.284 39.5255Z" fill="url(#paint0_linear_3400_4114)"/>
<path id="Vector_2" d="M139.258 75.7923H30.8828C28.8286 75.7923 26.562 75.7215 24.5078 75.1548L33.4328 129.626C35.487 141.809 40.7995 155.834 64.387 155.834H104.124C127.995 155.834 132.245 143.863 134.795 130.476L145.491 75.1548C143.508 75.6506 141.383 75.7923 139.258 75.7923ZM98.5995 126.721C97.537 127.784 96.1911 128.28 94.8453 128.28C93.4995 128.28 92.1536 127.784 91.0911 126.721L85.0703 120.701L78.837 126.934C77.7745 127.996 76.4286 128.492 75.0828 128.492C73.737 128.492 72.3911 127.996 71.3286 126.934C69.2745 124.88 69.2745 121.48 71.3286 119.426L77.562 113.192L71.5411 107.171C69.487 105.117 69.487 101.717 71.5411 99.6631C73.5953 97.609 76.9953 97.609 79.0495 99.6631L85.0703 105.684L90.8786 99.8756C92.9328 97.8215 96.3328 97.8215 98.387 99.8756C100.441 101.93 100.441 105.33 98.387 107.384L92.5786 113.192L98.5995 119.213C100.724 121.338 100.724 124.667 98.5995 126.721Z" fill="url(#paint1_linear_3400_4114)"/>
</g>
</g>
<defs>
<linearGradient id="paint0_linear_3400_4114" x1="85.0149" y1="75.8091" x2="85.0149" y2="15.0479" gradientUnits="userSpaceOnUse">
<stop stop-color="#0026FF"/>
<stop offset="1" stop-color="#0038FF"/>
</linearGradient>
<linearGradient id="paint1_linear_3400_4114" x1="85.0119" y1="155.856" x2="85.0119" y2="76.3308" gradientUnits="userSpaceOnUse">
<stop stop-color="#0026FF"/>
<stop offset="1" stop-color="#0038FF"/>
</linearGradient>
</defs>
</svg>
