<svg width="24" height="24" viewBox="0 0 24 24" fill="none" xmlns="http://www.w3.org/2000/svg">
<path d="M10.07 2.81985L3.13999 8.36985C2.35999 8.98985 1.85999 10.2998 2.02999 11.2798L3.35999 19.2398C3.59999 20.6598 4.95999 21.8098 6.39999 21.8098H17.6C19.03 21.8098 20.4 20.6498 20.64 19.2398L21.97 11.2798C22.13 10.2998 21.63 8.98985 20.86 8.36985L13.93 2.82985C12.86 1.96985 11.13 1.96985 10.07 2.81985Z" fill="#052D76" stroke="#052D76" stroke-width="1.5" stroke-linecap="round" stroke-linejoin="round"/>
<g clip-path="url(#clip0_1801_11182)">
<path d="M14.0035 9.85999C10.4379 12.4714 10.7044 15.5843 10.7871 18.2545L11.7439 18.1802L11.718 16.9875C11.9614 16.9697 12.2059 16.9305 12.364 16.8611C17.1927 14.7425 15.2353 6.70209 15.2353 6.70209C15.1816 7.77264 12.1569 9.23063 10.1546 10.6326C8.15234 12.0346 8.09296 14.2855 8.47817 15.1634C8.86338 16.0414 9.96865 16.4725 9.96865 16.4725C9.61372 11.786 14.0035 9.85999 14.0035 9.85999Z" fill="white"/>
</g>
<defs>
<clipPath id="clip0_1801_11182">
<rect width="11.5049" height="11.5049" fill="white" transform="translate(5 9.62256) rotate(-23.69)"/>
</clipPath>
</defs>
</svg>
