<svg width="85" height="92" viewBox="0 0 85 92" fill="none" xmlns="http://www.w3.org/2000/svg">
<rect x="0.25" y="0.25" width="84.5" height="91.5" rx="11.75" fill="url(#paint0_linear_1801_11137)" stroke="#CACACA" stroke-width="0.5"/>
<mask id="mask0_1801_11137" style="mask-type:alpha" maskUnits="userSpaceOnUse" x="0" y="0" width="85" height="92">
<rect x="0.25" y="0.25" width="84.5" height="91.5" rx="11.75" fill="url(#paint1_linear_1801_11137)" stroke="#CACACA" stroke-width="0.5"/>
</mask>
<g mask="url(#mask0_1801_11137)">
<g opacity="0.5">
<path d="M78.0623 25.2119L78.4799 19.1963C78.5896 17.6153 77.3695 16.2131 75.7885 16.1034C74.2075 15.9936 72.8054 17.2137 72.6956 18.7947L72.2941 24.579L47.229 22.839L47.6305 17.0547C47.7402 15.4737 46.5202 14.0716 44.9391 13.9619C43.3581 13.8521 41.956 15.0722 41.8462 16.6532L41.4286 22.6688C30.95 22.9101 25.4675 28.7679 24.0565 37.9306C23.9017 39.0435 24.7629 40.0332 25.8427 40.1082L91.0891 44.6375C92.2074 44.7152 93.1998 43.8154 93.1591 42.7276C93.0276 33.4578 88.407 26.8987 78.0623 25.2119Z" fill="white"/>
<path opacity="0.4" d="M88.914 50.2988C91.0349 50.446 92.6497 52.3018 92.5025 54.4227L90.8535 78.1767C90.0504 89.7452 83.7308 97.056 70.2342 96.1191L39.3848 93.9776C25.8882 93.0407 20.6393 84.9268 21.4424 73.3583L23.0914 49.6042C23.2386 47.4833 25.0944 45.8685 27.2153 46.0157L88.914 50.2988Z" fill="white"/>
<path d="M43.1868 67.1174C42.1842 67.0478 41.2111 66.554 40.5266 65.809C39.8833 65.0281 39.5287 63.9961 39.5983 62.9935C39.6679 61.9909 40.1617 61.0178 40.9067 60.3333C42.0614 59.3285 43.7822 59.0992 45.1662 59.8152C45.6541 60.0428 46.0595 60.3423 46.3825 60.7134C47.0257 61.4943 47.3803 62.5263 47.3107 63.5289C47.2411 64.5315 46.7473 65.5046 46.0023 66.1891C45.2215 66.8324 44.1894 67.187 43.1868 67.1174Z" fill="white"/>
<path d="M56.6832 68.0539C55.6806 67.9843 54.7074 67.4905 54.023 66.7455C53.3797 65.9647 53.0251 64.9326 53.0947 63.93C53.1643 62.9274 53.6581 61.9543 54.4031 61.2698C54.7742 60.9469 55.2171 60.7063 55.7318 60.5483C57.2014 60.0303 58.8741 60.4953 59.8788 61.6499C60.5221 62.4308 60.8767 63.4628 60.8071 64.4654C60.7375 65.468 60.2437 66.4412 59.4987 67.1256C59.2952 67.2665 59.0917 67.4074 58.8882 67.5482C58.6461 67.6864 58.4067 67.7861 58.17 67.8472C57.9306 67.9468 57.6938 68.0079 57.4598 68.0304C57.1872 68.0502 56.9531 68.0726 56.6832 68.0539Z" fill="white"/>
<path d="M70.1801 68.9918C69.1774 68.9222 68.2043 68.4284 67.5198 67.6834C66.8766 66.9026 66.522 65.8705 66.5916 64.8679C66.6612 63.8653 67.155 62.8922 67.8999 62.2077C68.3096 61.8874 68.714 61.6442 69.2287 61.4862C69.9442 61.2259 70.7208 61.2023 71.4813 61.4101C71.71 61.4647 71.936 61.5579 72.1594 61.6896C72.3854 61.7828 72.6087 61.9147 72.8294 62.085C73.0115 62.2526 73.1936 62.4202 73.3757 62.5878C74.0189 63.3687 74.3735 64.4007 74.3039 65.4033C74.2343 66.4059 73.7405 67.379 72.9956 68.0635C72.792 68.2044 72.5885 68.3452 72.385 68.4861C72.1429 68.6243 71.9035 68.724 71.6668 68.7851C71.4274 68.8847 71.1907 68.9458 70.9566 68.9683C70.684 68.9881 70.4114 69.0079 70.1801 68.9918Z" fill="white"/>
<path d="M42.2497 80.6148C41.7484 80.58 41.2552 80.4296 40.8058 80.2047C40.3179 79.9771 39.951 79.6803 39.5895 79.3065C38.9462 78.5256 38.5917 77.4936 38.6613 76.491C38.7309 75.4884 39.2246 74.5153 39.9696 73.8308C40.3793 73.5105 40.7837 73.2672 41.2984 73.1092C42.0139 72.8489 42.7905 72.8253 43.551 73.0331C43.7797 73.0877 44.0057 73.1809 44.2291 73.3127C44.4551 73.4059 44.6784 73.5377 44.8991 73.708C45.0812 73.8756 45.2633 74.0433 45.4454 74.2109C46.0886 74.9917 46.4432 76.0238 46.3736 77.0264C46.304 78.029 45.8102 79.0021 45.0652 79.6866C44.8617 79.8274 44.6555 80.0069 44.4547 80.1092C44.2126 80.2473 43.9732 80.3471 43.7365 80.4081C43.4971 80.5078 43.2604 80.5688 43.0263 80.5913C42.7537 80.6111 42.5197 80.6336 42.2497 80.6148Z" fill="white"/>
<path d="M55.7463 81.5514C54.7437 81.4818 53.7706 80.988 53.0861 80.243C52.4428 79.4622 52.0882 78.4302 52.1578 77.4276C52.2274 76.425 52.7212 75.4518 53.4662 74.7673C54.992 73.4396 57.6142 73.6216 58.9419 75.1475C59.5852 75.9283 59.9398 76.9603 59.8702 77.9629C59.8006 78.9656 59.3068 79.9387 58.5618 80.6232C57.781 81.2664 56.7489 81.621 55.7463 81.5514Z" fill="white"/>
<path d="M69.2431 82.4884C68.2405 82.4188 67.2674 81.925 66.5829 81.1801C65.9397 80.3992 65.5851 79.3672 65.6547 78.3646C65.7243 77.362 66.218 76.3888 66.963 75.7044C68.4888 74.3766 71.111 74.5587 72.4388 76.0845C73.082 76.8653 73.4366 77.8974 73.367 78.9C73.2974 79.9026 72.8036 80.8757 72.0587 81.5602C71.2778 82.2034 70.2458 82.558 69.2431 82.4884Z" fill="white"/>
</g>
</g>
<defs>
<linearGradient id="paint0_linear_1801_11137" x1="42.5088" y1="92.0253" x2="42.5088" y2="1.34103" gradientUnits="userSpaceOnUse">
<stop stop-color="#004DFF"/>
<stop offset="1" stop-color="#009CFF"/>
</linearGradient>
<linearGradient id="paint1_linear_1801_11137" x1="42.5088" y1="92.0253" x2="42.5088" y2="1.34103" gradientUnits="userSpaceOnUse">
<stop stop-color="#004DFF"/>
<stop offset="1" stop-color="#009CFF"/>
</linearGradient>
</defs>
</svg>
