<svg width="64" height="62" viewBox="0 0 64 62" fill="none" xmlns="http://www.w3.org/2000/svg">
<g filter="url(#filter0_dd_1800_9584)">
<rect x="0.233004" y="-0.233004" width="55.534" height="55.534" rx="27.767" transform="matrix(1 0 0 -1 4.00226 57.534)" fill="url(#paint0_linear_1800_9584)" stroke="#CACACA" stroke-width="0.466007"/>
</g>
<path d="M44.7541 14.6245V35.8067C44.7524 37.4915 44.0824 39.1069 42.891 40.2983C41.6996 41.4896 40.0843 42.1597 38.3994 42.1614H17.2171C17.2188 43.8462 17.8888 45.4616 19.0802 46.6529C20.2716 47.8443 21.8869 48.5143 23.5718 48.516H44.7541C46.439 48.5143 48.0543 47.8443 49.2457 46.6529C50.4371 45.4616 51.1071 43.8462 51.1088 42.1614V20.9792C51.1071 19.2943 50.4371 17.679 49.2457 16.4876C48.0543 15.2962 46.439 14.6262 44.7541 14.6245Z" fill="#CEDEFB"/>
<path d="M40.5175 44.2797H19.3352C17.6503 44.278 16.0349 43.608 14.8436 42.4166C13.6522 41.2252 12.9822 39.6099 12.9805 37.925V16.7428C12.9822 15.058 13.6522 13.4426 14.8436 12.2513C16.0349 11.0599 17.6503 10.3899 19.3352 10.3882H40.5175C42.2023 10.3899 43.8177 11.0599 45.0091 12.2513C46.2005 13.4426 46.8705 15.058 46.8722 16.7428V37.925C46.8705 39.6099 46.2005 41.2252 45.0091 42.4166C43.8177 43.608 42.2023 44.278 40.5175 44.2797Z" fill="url(#paint1_linear_1800_9584)"/>
<path d="M37.8701 30.5111C37.3901 30.5113 36.9259 30.3392 36.5621 30.0261L33.8454 27.7502L31.1208 30.0362C30.8272 30.2825 30.4696 30.44 30.0897 30.4904C29.7099 30.5407 29.3235 30.4817 28.9759 30.3204C28.6284 30.1591 28.334 29.9021 28.1272 29.5795C27.9205 29.2568 27.8099 28.882 27.8085 28.4988V10.3882H39.8824V28.4988C39.8824 29.0325 39.6704 29.5443 39.293 29.9217C38.9156 30.2991 38.4038 30.5111 37.8701 30.5111Z" fill="url(#paint2_linear_1800_9584)"/>
<path d="M21.0123 43.7529C25.1095 41.9495 26.9723 37.1377 25.1624 33.0257C23.8481 30.0396 21.2654 29.6721 18.9861 29.3469C16.1844 28.9469 13.7648 28.6011 12.4138 24.2983C12.2819 23.8823 11.902 23.5956 11.4657 23.5852C11.0313 23.5739 10.6352 23.8417 10.4865 24.252C6.82479 34.2435 10.2406 39.5067 10.3885 39.7264C12.1086 43.6799 16.9152 45.5562 21.0123 43.7529Z" fill="#00AD7C"/>
<path d="M31.0173 43.8001C31.3454 43.6557 31.5859 43.3429 31.6229 42.9617C31.6741 42.4007 31.2625 41.9054 30.7025 41.8515C27.6016 41.5653 22.1672 39.8452 19.9118 36.2831C19.6095 35.8086 18.9841 35.6567 18.5066 35.967C18.0313 36.2674 17.8901 36.897 18.1897 37.3703C20.6703 41.2873 26.3171 43.4902 30.5156 43.8785C30.6906 43.8971 30.8626 43.8682 31.0173 43.8001Z" fill="#0B5225"/>
<defs>
<filter id="filter0_dd_1800_9584" x="1.20622" y="0.135971" width="61.5921" height="61.5921" filterUnits="userSpaceOnUse" color-interpolation-filters="sRGB">
<feFlood flood-opacity="0" result="BackgroundImageFix"/>
<feColorMatrix in="SourceAlpha" type="matrix" values="0 0 0 0 0 0 0 0 0 0 0 0 0 0 0 0 0 0 127 0" result="hardAlpha"/>
<feOffset dy="0.932014"/>
<feGaussianBlur stdDeviation="0.932014"/>
<feComposite in2="hardAlpha" operator="out"/>
<feColorMatrix type="matrix" values="0 0 0 0 0.0509804 0 0 0 0 0.0509804 0 0 0 0 0.0705882 0 0 0 0.04 0"/>
<feBlend mode="normal" in2="BackgroundImageFix" result="effect1_dropShadow_1800_9584"/>
<feColorMatrix in="SourceAlpha" type="matrix" values="0 0 0 0 0 0 0 0 0 0 0 0 0 0 0 0 0 0 127 0" result="hardAlpha"/>
<feOffset dy="0.932014"/>
<feGaussianBlur stdDeviation="1.39802"/>
<feComposite in2="hardAlpha" operator="out"/>
<feColorMatrix type="matrix" values="0 0 0 0 0.0509804 0 0 0 0 0.0509804 0 0 0 0 0.0705882 0 0 0 0.05 0"/>
<feBlend mode="normal" in2="effect1_dropShadow_1800_9584" result="effect2_dropShadow_1800_9584"/>
<feBlend mode="normal" in="SourceGraphic" in2="effect2_dropShadow_1800_9584" result="shape"/>
</filter>
<linearGradient id="paint0_linear_1800_9584" x1="28.8615" y1="-0.861539" x2="29.2923" y2="37.9077" gradientUnits="userSpaceOnUse">
<stop stop-color="white"/>
<stop offset="0.59" stop-color="#F9F9F9"/>
<stop offset="1" stop-color="#F2F2F2"/>
</linearGradient>
<linearGradient id="paint1_linear_1800_9584" x1="29.9298" y1="44.289" x2="29.9298" y2="10.8822" gradientUnits="userSpaceOnUse">
<stop stop-color="#618FFC"/>
<stop offset="1" stop-color="#009CFF"/>
</linearGradient>
<linearGradient id="paint2_linear_1800_9584" x1="33.8467" y1="30.5166" x2="33.8467" y2="10.6815" gradientUnits="userSpaceOnUse">
<stop stop-color="#0026FF"/>
<stop offset="1" stop-color="#0038FF"/>
</linearGradient>
</defs>
</svg>
