<svg width="64" height="62" viewBox="0 0 64 62" fill="none" xmlns="http://www.w3.org/2000/svg">
<g filter="url(#filter0_dd_1800_9625)">
<rect x="0.233004" y="-0.233004" width="55.534" height="55.534" rx="27.767" transform="matrix(1 0 0 -1 4.00226 57.534)" fill="url(#paint0_linear_1800_9625)" stroke="#CACACA" stroke-width="0.466007"/>
</g>
<path d="M48.251 15.3804C50.9367 16.3342 52.0904 19.1914 52.0388 21.9695C51.9356 27.5258 47.099 34.3351 37.2907 34.4992C39.4817 32.9714 40.8321 31.2515 41.3826 29.8828C46.2318 28.4126 47.9813 24.5977 48.0315 21.895C48.0628 20.2114 47.4571 19.3514 46.9095 19.1569C46.3657 18.9638 44.781 19.0883 42.1742 21.6753V16.5171C43.5487 15.6355 45.9244 14.5541 48.251 15.3804Z" fill="url(#paint1_linear_1800_9625)"/>
<path d="M15.7533 15.3799C13.0677 16.3337 11.914 19.1908 11.9656 21.9689C12.0687 27.5251 16.9053 34.3344 26.7135 34.4984C24.5225 32.9707 23.1721 31.2508 22.6217 29.8822C17.7725 28.4119 16.023 24.5971 15.9728 21.8944C15.9416 20.2108 16.5473 19.3509 17.0948 19.1564C17.6386 18.9633 19.2233 19.0877 21.8301 21.6747V16.5166C20.4556 15.635 18.0799 14.5537 15.7533 15.3799Z" fill="url(#paint2_linear_1800_9625)"/>
<path d="M28.6753 32.9292L27.3901 39.4333H36.6186L35.3334 32.9292C33.1694 33.4154 30.8393 33.4154 28.6753 32.9292Z" fill="#0060FF"/>
<path d="M25.003 39.2739H39.006C39.8942 39.2739 40.6092 39.989 40.6092 40.8772V45.0405C40.6092 45.9287 39.8942 46.6438 39.006 46.6438H25.003C24.1148 46.6438 23.3998 45.9287 23.3998 45.0405V40.8772C23.3998 39.989 24.1148 39.2739 25.003 39.2739Z" fill="#009FFF"/>
<path d="M45.7651 15.1323C44.3417 15.3082 43.0527 15.953 42.1737 16.5168V21.675C43.7426 20.118 44.9407 19.4538 45.7651 19.2132V15.1323ZM45.6809 27.3404C44.6531 28.4034 43.2478 29.3167 41.3821 29.8824C40.8316 31.251 39.4812 32.971 37.2903 34.4987C38.6638 34.4757 39.9398 34.3222 41.119 34.0603C43.5179 32.6498 45.2855 30.4099 45.6809 27.3404Z" fill="url(#paint3_linear_1800_9625)"/>
<path d="M18.2387 15.1328C19.6621 15.3087 20.9511 15.9535 21.8301 16.5173V21.6756C20.2612 20.1186 19.063 19.4543 18.2387 19.2137V15.1328ZM18.3229 27.3411C19.3507 28.404 20.756 29.3174 22.6217 29.8831C23.1722 31.2517 24.5226 32.9717 26.7136 34.4994C25.34 34.4764 24.064 34.323 22.8848 34.061C20.4858 32.6505 18.7182 30.4105 18.3229 27.3411Z" fill="url(#paint4_linear_1800_9625)"/>
<path d="M43.6815 12.354V26.0151C43.6815 39.1414 20.3281 39.1414 20.3281 26.0151V12.354H43.6815Z" fill="#52C7FF"/>
<path d="M23.3998 42.3594V45.0398C23.3998 45.9279 24.1148 46.643 25.003 46.643H39.0058C39.894 46.643 40.609 45.9279 40.609 45.0398V42.3594H23.3998Z" fill="#0082FF"/>
<path d="M22.9192 44.4443H41.0905C41.9787 44.4443 42.6937 45.1594 42.6937 46.0476V47.0045C42.6937 47.8927 41.9787 48.6077 41.0905 48.6077H22.9192C22.031 48.6077 21.3159 47.8927 21.3159 47.0045V46.0476C21.3159 45.1594 22.031 44.4443 22.9192 44.4443Z" fill="#0060FF"/>
<path d="M38.246 25.1455C38.246 26.8008 37.5884 28.3882 36.418 29.5587C35.2475 30.7292 33.6601 31.3867 32.0048 31.3867C30.3495 31.3867 28.762 30.7292 27.5916 29.5587C26.4211 28.3882 25.7636 26.8008 25.7636 25.1455C25.7636 24.3259 25.925 23.5143 26.2387 22.7571C26.5523 21.9999 27.012 21.3119 27.5916 20.7323C28.1711 20.1528 28.8592 19.693 29.6164 19.3794C30.3736 19.0657 31.1852 18.9043 32.0048 18.9043C32.8244 18.9043 33.636 19.0657 34.3932 19.3794C35.1504 19.693 35.8384 20.1528 36.418 20.7323C36.9975 21.3119 37.4573 21.9999 37.7709 22.7571C38.0846 23.5143 38.246 24.3259 38.246 25.1455Z" fill="#E7EDFB"/>
<path d="M20.3279 12.354V14.9995H43.681V12.354H20.3279Z" fill="#52B3FF"/>
<path d="M35.5425 20.0039C36.2588 21.0448 36.6423 22.2786 36.6423 23.5421C36.6423 25.1973 35.9848 26.7848 34.8144 27.9552C33.6439 29.1257 32.0565 29.7832 30.4012 29.7832C29.1377 29.7832 27.904 29.3997 26.8632 28.6834C27.4368 29.5169 28.2045 30.1986 29.1002 30.6695C29.9958 31.1404 30.9925 31.3864 32.0044 31.3864C33.6597 31.3864 35.2471 30.7289 36.4176 29.5585C37.588 28.388 38.2456 26.8006 38.2456 25.1453C38.2456 24.1334 37.9995 23.1367 37.5286 22.241C37.0577 21.3453 36.3761 20.5776 35.5425 20.0039Z" fill="#AAC9FB"/>
<path d="M20.3816 15.978V16.2988H21.0231V15.978H20.3816ZM21.9846 15.978V16.2988H22.6261V15.978H21.9846ZM23.5877 15.978V16.2988H24.2291V15.978H23.5877ZM25.1913 15.978V16.2988H25.8328V15.978H25.1913ZM26.7944 15.978V16.2988H27.4358V15.978H26.7944ZM28.3974 15.978V16.2988H29.0389V15.978H28.3974ZM30.001 15.978V16.2988H30.6425V15.978H30.001ZM31.6041 15.978V16.2988H32.2455V15.978H31.6041ZM33.2071 15.978V16.2988H33.8486V15.978H33.2071ZM34.8107 15.978V16.2988H35.4522V15.978H34.8107ZM36.4138 15.978V16.2988H37.0552V15.978H36.4138ZM38.0168 15.978V16.2988H38.6583V15.978H38.0168ZM39.6205 15.978V16.2988H40.2619V15.978H39.6205ZM41.2235 15.978V16.2988H41.8649V15.978H41.2235ZM42.8265 15.978V16.2988H43.468V15.978H42.8265Z" fill="#E7EDFB"/>
<path d="M19.2316 8.52393H44.7779C45.6661 8.52393 46.2072 9.25118 46.0605 10.1272L45.9001 11.0841C45.7534 11.96 45.1851 12.6873 44.2969 12.6873H19.7126C18.8244 12.6873 18.2561 11.96 18.1094 11.0841L17.949 10.1272C17.8023 9.25118 18.3434 8.52393 19.2316 8.52393Z" fill="url(#paint5_linear_1800_9625)"/>
<path d="M22.1249 46.1587V46.4794H22.7663V46.1587H22.1249ZM23.7279 46.1587V46.4794H24.3694V46.1587H23.7279ZM25.3315 46.1587V46.4794H25.973V46.1587H25.3315ZM26.9346 46.1587V46.4794H27.576V46.1587H26.9346ZM28.5376 46.1587V46.4794H29.1791V46.1587H28.5376ZM30.1412 46.1587V46.4794H30.7827V46.1587H30.1412ZM31.7443 46.1587V46.4794H32.3857V46.1587H31.7443ZM33.3473 46.1587V46.4794H33.9888V46.1587H33.3473ZM34.951 46.1587V46.4794H35.5924V46.1587H34.951ZM36.554 46.1587V46.4794H37.1954V46.1587H36.554ZM38.157 46.1587V46.4794H38.7985V46.1587H38.157ZM39.7607 46.1587V46.4794H40.4021V46.1587H39.7607ZM41.3637 46.1587V46.4794H42.0052V46.1587H41.3637Z" fill="#E7EDFB"/>
<path fill-rule="evenodd" clip-rule="evenodd" d="M30.8165 27.188C30.6103 27.6107 30.3217 28.0692 29.92 28.5749C29.7801 28.7515 29.7671 28.9975 29.8884 29.1877C30.0097 29.378 30.2382 29.4705 30.4578 29.4175C35.2483 28.2662 37.6473 26.1022 38.5054 23.7944C39.3849 21.429 38.6724 18.8609 37.1229 16.887C36.9496 16.6665 36.6341 16.6194 36.4043 16.7797C33.7378 18.6392 32.4542 20.0357 31.8363 21.1986C30.8156 20.0175 29.1042 19.053 24.0292 19.1505C23.7491 19.1558 23.5214 19.3788 23.5112 19.6589C23.4198 22.0868 24.2919 24.5047 26.2543 25.9236C27.3908 26.7458 28.899 27.2404 30.8165 27.188Z" fill="#5C91F2"/>
<path fill-rule="evenodd" clip-rule="evenodd" d="M31.3038 24.6003C31.2856 24.594 31.2676 24.5882 31.2489 24.582C29.644 24.0343 28.1225 23.1804 26.9791 22.1692C28.0784 23.2498 29.5688 24.1894 31.1584 24.8271C31.209 24.8474 31.2605 24.8673 31.3115 24.8875C31.3238 25.8958 31.1631 27.0098 29.9203 28.5747C29.7803 28.7514 29.7674 28.9974 29.8887 29.1876C30.0099 29.3778 30.2384 29.4704 30.458 29.4174C35.2485 28.2661 37.6476 26.102 38.5057 23.7942C39.3851 21.4289 38.6727 18.8608 37.1232 16.8869C36.9498 16.6664 36.6343 16.6193 36.4045 16.7796C33.1871 19.0238 31.9835 20.5932 31.5323 21.8911C31.2206 22.7884 31.2577 23.5718 31.2946 24.3837C31.2979 24.4555 31.3014 24.5277 31.3038 24.6003Z" fill="#052D76"/>
<path fill-rule="evenodd" clip-rule="evenodd" d="M37.1228 16.8871C36.9495 16.6665 36.634 16.6195 36.4042 16.7797C33.1867 19.0239 31.9832 20.5934 31.532 21.8912C31.2203 22.7885 31.2574 23.572 31.2943 24.3839C31.3471 25.5324 31.3731 26.7453 29.9199 28.5749C29.78 28.7516 29.767 28.9976 29.8883 29.1878C30.0096 29.378 30.2381 29.4705 30.4577 29.4175C35.2482 28.2662 37.6472 26.1022 38.5053 23.7944C39.3848 21.4291 38.6723 18.8609 37.1228 16.8871Z" fill="#084BC4"/>
<path fill-rule="evenodd" clip-rule="evenodd" d="M29.9832 28.4942C29.9628 28.5203 29.9417 28.5477 29.9199 28.5748C29.7799 28.7515 29.767 28.9975 29.8883 29.1877C30.0095 29.3779 30.2381 29.4704 30.4577 29.4174C30.4798 29.4119 30.5026 29.4068 30.5252 29.4011C30.5475 29.3894 30.5673 29.3785 30.5853 29.3688C31.9381 28.543 33.1595 27.1979 34.083 25.636C34.9619 24.152 35.5766 22.493 35.7917 20.9561C35.4217 22.4321 34.6545 23.9877 33.6432 25.343C32.6429 26.6841 31.4043 27.8136 30.0828 28.4379C30.0544 28.4533 30.021 28.4719 29.9832 28.4942Z" fill="#5C91F2"/>
<defs>
<filter id="filter0_dd_1800_9625" x="1.20622" y="0.135971" width="61.5921" height="61.5921" filterUnits="userSpaceOnUse" color-interpolation-filters="sRGB">
<feFlood flood-opacity="0" result="BackgroundImageFix"/>
<feColorMatrix in="SourceAlpha" type="matrix" values="0 0 0 0 0 0 0 0 0 0 0 0 0 0 0 0 0 0 127 0" result="hardAlpha"/>
<feOffset dy="0.932014"/>
<feGaussianBlur stdDeviation="0.932014"/>
<feComposite in2="hardAlpha" operator="out"/>
<feColorMatrix type="matrix" values="0 0 0 0 0.0509804 0 0 0 0 0.0509804 0 0 0 0 0.0705882 0 0 0 0.04 0"/>
<feBlend mode="normal" in2="BackgroundImageFix" result="effect1_dropShadow_1800_9625"/>
<feColorMatrix in="SourceAlpha" type="matrix" values="0 0 0 0 0 0 0 0 0 0 0 0 0 0 0 0 0 0 127 0" result="hardAlpha"/>
<feOffset dy="0.932014"/>
<feGaussianBlur stdDeviation="1.39802"/>
<feComposite in2="hardAlpha" operator="out"/>
<feColorMatrix type="matrix" values="0 0 0 0 0.0509804 0 0 0 0 0.0509804 0 0 0 0 0.0705882 0 0 0 0.05 0"/>
<feBlend mode="normal" in2="effect1_dropShadow_1800_9625" result="effect2_dropShadow_1800_9625"/>
<feBlend mode="normal" in="SourceGraphic" in2="effect2_dropShadow_1800_9625" result="shape"/>
</filter>
<linearGradient id="paint0_linear_1800_9625" x1="28.8615" y1="-0.861539" x2="29.2923" y2="37.9077" gradientUnits="userSpaceOnUse">
<stop stop-color="white"/>
<stop offset="0.59" stop-color="#F9F9F9"/>
<stop offset="1" stop-color="#F2F2F2"/>
</linearGradient>
<linearGradient id="paint1_linear_1800_9625" x1="44.6671" y1="34.5045" x2="44.6671" y2="15.3684" gradientUnits="userSpaceOnUse">
<stop stop-color="#004DFF"/>
<stop offset="1" stop-color="#009CFF"/>
</linearGradient>
<linearGradient id="paint2_linear_1800_9625" x1="19.3402" y1="34.5038" x2="19.3402" y2="15.3679" gradientUnits="userSpaceOnUse">
<stop stop-color="#004DFF"/>
<stop offset="1" stop-color="#009CFF"/>
</linearGradient>
<linearGradient id="paint3_linear_1800_9625" x1="41.5285" y1="34.504" x2="41.5285" y2="15.4146" gradientUnits="userSpaceOnUse">
<stop stop-color="#004DFF"/>
<stop offset="1" stop-color="#009CFF"/>
</linearGradient>
<linearGradient id="paint4_linear_1800_9625" x1="22.477" y1="34.5047" x2="22.477" y2="15.4151" gradientUnits="userSpaceOnUse">
<stop stop-color="#004DFF"/>
<stop offset="1" stop-color="#009CFF"/>
</linearGradient>
<linearGradient id="paint5_linear_1800_9625" x1="32.0077" y1="12.6884" x2="32.0077" y2="8.58461" gradientUnits="userSpaceOnUse">
<stop stop-color="#004DFF"/>
<stop offset="1" stop-color="#009CFF"/>
</linearGradient>
</defs>
</svg>
