<svg width="64" height="62" viewBox="0 0 64 62" fill="none" xmlns="http://www.w3.org/2000/svg">
<g filter="url(#filter0_dd_1800_9668)">
<rect x="0.233004" y="-0.233004" width="55.534" height="55.534" rx="27.767" transform="matrix(1 0 0 -1 4.00226 57.534)" fill="url(#paint0_linear_1800_9668)" stroke="#CACACA" stroke-width="0.466007"/>
</g>
<g clip-path="url(#clip0_1800_9668)">
<path d="M30.6169 15.5375C30.4608 13.6714 29.0454 12.1983 27.2567 12.0732C26.1795 11.9987 24.7008 11.9649 22.6751 12.0507C20.6501 12.1379 19.1651 12.2975 18.0795 12.4613C16.2774 12.7398 14.7396 14.2782 14.4619 16.0803C14.2981 17.1659 14.1378 18.6502 14.0513 20.6759C13.9648 22.7016 13.9985 24.1796 14.0738 25.2575C14.1989 27.0462 15.672 28.4616 17.5381 28.6177C18.6596 28.7091 20.1987 28.7738 22.3046 28.7675C24.4111 28.7619 25.9503 28.6873 27.0724 28.5868C28.9392 28.4194 30.4193 26.9394 30.5867 25.0726C30.6872 23.9504 30.7617 22.4112 30.7674 20.3047C30.773 18.1981 30.7083 16.659 30.6176 15.5382L30.6169 15.5375ZM49.9493 20.6752C50.0358 22.7009 50.0021 24.1789 49.9268 25.2568C49.8017 27.0455 48.3286 28.4609 46.4625 28.617C45.341 28.7084 43.8019 28.7731 41.696 28.7668C39.5895 28.7612 38.0503 28.6873 36.9281 28.5861C35.0606 28.4194 33.5806 26.9387 33.4139 25.0719C33.3127 23.9497 33.2396 22.4105 33.2332 20.304C33.2276 18.1974 33.2923 16.659 33.383 15.5375C33.5391 13.6714 34.9538 12.1983 36.7432 12.0732C37.8211 11.998 39.2991 11.9642 41.3248 12.0507C43.3505 12.1379 44.8341 12.2975 45.9204 12.4613C47.7225 12.7391 49.261 14.2775 49.5387 16.0796C49.7032 17.1652 49.8621 18.6495 49.9493 20.6752ZM30.7667 39.6962C30.7723 41.8027 30.7076 43.3419 30.6169 44.4626C30.4608 46.3287 29.0454 47.8018 27.2567 47.9269C26.1788 48.0022 24.7008 48.0352 22.6751 47.9494C20.6501 47.8623 19.1658 47.7026 18.0795 47.5388C16.2774 47.2611 14.7396 45.7226 14.4612 43.9205C14.2974 42.8349 14.1371 41.3506 14.0506 39.3249C13.9641 37.2992 13.9978 35.8212 14.0731 34.7433C14.1982 32.9546 15.6713 31.5392 17.5374 31.3831C18.6581 31.2917 20.198 31.227 22.3039 31.2333C24.4104 31.239 25.9496 31.3128 27.0717 31.4141C28.9392 31.5814 30.4193 33.0615 30.586 34.9283C30.6865 36.0505 30.761 37.5896 30.7667 39.6962ZM49.9493 39.3249C49.8621 41.3506 49.7025 42.8349 49.5387 43.9205C49.261 45.7226 47.7225 47.2611 45.9204 47.5388C44.8348 47.7026 43.3505 47.8623 41.3248 47.9494C39.2991 48.0352 37.8218 48.0022 36.7432 47.9269C34.9545 47.8018 33.5391 46.3287 33.383 44.4626C33.2916 43.3412 33.2276 41.802 33.2332 39.6962C33.2389 37.5896 33.3127 36.0505 33.4139 34.9283C33.5813 33.0608 35.0614 31.5807 36.9281 31.4141C38.0496 31.3135 39.5895 31.2397 41.696 31.2333C43.8019 31.2277 45.3417 31.2924 46.4625 31.3831C48.3279 31.5392 49.8017 32.9546 49.9268 34.7433C50.0021 35.8212 50.0358 37.2992 49.9493 39.3249Z" fill="url(#paint1_linear_1800_9668)"/>
</g>
<defs>
<filter id="filter0_dd_1800_9668" x="1.20622" y="0.135971" width="61.5921" height="61.5921" filterUnits="userSpaceOnUse" color-interpolation-filters="sRGB">
<feFlood flood-opacity="0" result="BackgroundImageFix"/>
<feColorMatrix in="SourceAlpha" type="matrix" values="0 0 0 0 0 0 0 0 0 0 0 0 0 0 0 0 0 0 127 0" result="hardAlpha"/>
<feOffset dy="0.932014"/>
<feGaussianBlur stdDeviation="0.932014"/>
<feComposite in2="hardAlpha" operator="out"/>
<feColorMatrix type="matrix" values="0 0 0 0 0.0509804 0 0 0 0 0.0509804 0 0 0 0 0.0705882 0 0 0 0.04 0"/>
<feBlend mode="normal" in2="BackgroundImageFix" result="effect1_dropShadow_1800_9668"/>
<feColorMatrix in="SourceAlpha" type="matrix" values="0 0 0 0 0 0 0 0 0 0 0 0 0 0 0 0 0 0 127 0" result="hardAlpha"/>
<feOffset dy="0.932014"/>
<feGaussianBlur stdDeviation="1.39802"/>
<feComposite in2="hardAlpha" operator="out"/>
<feColorMatrix type="matrix" values="0 0 0 0 0.0509804 0 0 0 0 0.0509804 0 0 0 0 0.0705882 0 0 0 0.05 0"/>
<feBlend mode="normal" in2="effect1_dropShadow_1800_9668" result="effect2_dropShadow_1800_9668"/>
<feBlend mode="normal" in="SourceGraphic" in2="effect2_dropShadow_1800_9668" result="shape"/>
</filter>
<linearGradient id="paint0_linear_1800_9668" x1="28.8615" y1="-0.861539" x2="29.2923" y2="37.9077" gradientUnits="userSpaceOnUse">
<stop stop-color="white"/>
<stop offset="0.59" stop-color="#F9F9F9"/>
<stop offset="1" stop-color="#F2F2F2"/>
</linearGradient>
<linearGradient id="paint1_linear_1800_9668" x1="32.0037" y1="48.0102" x2="32.0037" y2="12.5243" gradientUnits="userSpaceOnUse">
<stop stop-color="#004DFF"/>
<stop offset="1" stop-color="#009CFF"/>
</linearGradient>
<clipPath id="clip0_1800_9668">
<rect width="36" height="36" fill="white" transform="translate(14.0001 12)"/>
</clipPath>
</defs>
</svg>
