<svg width="64" height="62" viewBox="0 0 64 62" fill="none" xmlns="http://www.w3.org/2000/svg">
<g filter="url(#filter0_dd_1800_9598)">
<rect x="0.233004" y="-0.233004" width="55.534" height="55.534" rx="27.767" transform="matrix(1 0 0 -1 4.00226 57.534)" fill="url(#paint0_linear_1800_9598)" stroke="#CACACA" stroke-width="0.466007"/>
</g>
<path d="M45.4783 12.9603V29.0583L43.8154 47.2804C43.7595 47.9512 43.2285 48.4682 42.5857 48.5381C42.3901 48.566 42.1805 48.594 41.9848 48.594H18.229C16.3006 48.594 14.7355 47.0289 14.7355 45.1005V12.9603C14.7355 11.0319 16.3006 9.4668 18.229 9.4668H41.9848C43.9133 9.4668 45.4783 11.0319 45.4783 12.9603Z" fill="url(#paint1_linear_1800_9598)"/>
<path d="M31.5045 31.8255C31.5045 32.5941 30.8756 33.2229 30.1071 33.2229H21.7227C20.9541 33.2229 20.3253 32.5941 20.3253 31.8255C20.3253 31.0569 20.9541 30.4281 21.7227 30.4281H30.1071C30.8756 30.4281 31.5045 31.0569 31.5045 31.8255ZM38.4914 23.4411H21.7227C20.9541 23.4411 20.3253 24.0699 20.3253 24.8385C20.3253 25.6071 20.9541 26.2359 21.7227 26.2359H38.4914C39.26 26.2359 39.8888 25.6071 39.8888 24.8385C39.8888 24.0699 39.26 23.4411 38.4914 23.4411ZM21.7227 19.2489H38.4914C39.26 19.2489 39.8888 18.6201 39.8888 17.8515C39.8888 17.0829 39.26 16.4541 38.4914 16.4541H21.7227C20.9541 16.4541 20.3253 17.0829 20.3253 17.8515C20.3253 18.6201 20.9541 19.2489 21.7227 19.2489ZM50.2715 30.2464L42.3902 38.1138H32.9019C32.9019 35.4308 33.9359 32.7478 35.9761 30.7076C39.8888 26.7809 46.1632 26.6132 50.2715 30.2464ZM50.2715 45.9951C48.3012 47.7419 45.8418 48.5943 43.3823 48.5943C40.6993 48.5943 38.0163 47.5742 35.9761 45.52C33.9359 43.4798 32.9019 40.7968 32.9019 38.1138H42.3902L50.2715 45.9951Z" fill="#C6EBBE"/>
<path d="M48.4964 25.8333C49.2146 26.5584 49.9589 27.3247 50.6544 28.1311C51.3367 28.9222 52.0113 29.7548 52.6189 30.6016C53.2397 31.4667 53.6493 32.4679 54.1374 33.3675C54.6533 34.319 54.8837 35.3435 55.1867 36.3063C55.5127 37.3427 55.7632 38.3146 55.7632 39.3301C55.7632 40.4552 55.7758 41.4858 55.5066 42.4124C55.2023 43.4603 54.6093 44.299 54.0078 45.1043C53.3888 45.9331 52.7457 46.738 51.8656 47.3224C50.9989 47.9034 50.0604 48.3692 49.0736 48.7081C48.1281 49.0278 47.1212 49.4117 46.0539 49.5619C45.0596 49.702 43.9895 49.4149 42.9195 49.4149C41.8494 49.4149 40.8159 49.4455 39.8211 49.3056C38.7535 49.1554 37.6775 49.1263 36.7321 48.8066C35.7098 48.4609 34.9225 47.7051 34.0877 47.1508C33.2075 46.5663 32.1596 46.1504 31.5406 45.3215C30.939 44.5163 30.525 43.4928 30.2209 42.445C29.9517 41.5181 29.8279 40.4551 29.8279 39.3299C29.8258 38.2685 29.9825 37.2127 30.2927 36.1976C30.5925 35.2345 30.9623 34.2072 31.4738 33.2552C31.9577 32.3545 32.7398 31.5843 33.3571 30.7182C33.9612 29.8705 34.5864 29.0209 35.266 28.2292C35.9587 27.4226 36.5749 26.5471 37.2926 25.8221C38.0633 25.0435 38.9272 24.2806 39.6619 23.6243C41.245 23.3609 41.2406 23.6303 42.8455 23.6303C44.4504 23.6303 44.505 23.6351 46.0881 23.8991C46.8201 24.5571 47.7235 25.053 48.4964 25.8333Z" fill="#12883E"/>
<path d="M41.013 49.4038C40.6142 49.3918 40.2162 49.3592 39.8207 49.3061C38.7531 49.1559 37.6771 49.1268 36.7317 48.8071C35.7094 48.4614 34.9221 47.7056 34.0873 47.1513C33.2071 46.5668 32.1592 46.1509 31.5401 45.322C30.9386 44.5168 30.5247 43.4933 30.2204 42.4454C29.9512 41.5186 29.8275 40.4556 29.8275 39.3304C29.8253 38.269 29.982 37.2132 30.2922 36.1981C30.592 35.235 30.9618 34.2077 31.4733 33.2557C31.9572 32.355 32.7393 31.5848 33.3566 30.7187C33.9607 29.871 34.5859 29.0214 35.2655 28.2296C35.9582 27.4231 36.5744 26.5476 37.2921 25.8226C38.0628 25.044 38.9267 24.2811 39.6614 23.6248C40.7303 23.4469 41.0759 23.512 41.6813 23.573C40.9897 24.2008 40.2064 24.9121 39.5002 25.6378C38.7825 26.3753 38.1663 27.2659 37.4736 28.0863C36.7936 28.8918 36.1689 29.7559 35.5647 30.6182C34.9474 31.4992 34.1654 32.2827 33.6814 33.199C33.1699 34.1673 32.8 35.2122 32.5003 36.192C32.1899 37.2255 32.0333 38.2991 32.0355 39.3782C32.0355 40.5227 32.1593 41.604 32.4284 42.5468C32.7328 43.6128 33.1468 44.6538 33.7481 45.473C34.3672 46.3161 35.4151 46.7391 36.2953 47.3337C37.1302 47.8975 37.9175 48.6663 38.9397 49.018C39.5848 49.2399 40.2906 49.3242 41.013 49.4038Z" fill="#0F6D31"/>
<path d="M48.7706 22.6658C48.7706 22.8124 48.7417 22.9575 48.6856 23.0929C48.6296 23.2283 48.5473 23.3513 48.4437 23.4549C48.3401 23.5585 48.217 23.6407 48.0816 23.6968C47.9462 23.7528 47.8011 23.7817 47.6546 23.7817H38.1837C38.0364 23.783 37.8902 23.7551 37.7536 23.6996C37.6171 23.6441 37.4928 23.5622 37.3882 23.4584C37.2835 23.3547 37.2004 23.2312 37.1436 23.0951C37.0869 22.9591 37.0577 22.8132 37.0577 22.6658C37.0577 22.5184 37.0869 22.3724 37.1436 22.2364C37.2004 22.1003 37.2835 21.9769 37.3882 21.8731C37.4928 21.7694 37.6171 21.6874 37.7536 21.6319C37.8902 21.5764 38.0364 21.5485 38.1837 21.5498H47.6546C47.9506 21.5498 48.2344 21.6674 48.4437 21.8767C48.653 22.086 48.7706 22.3698 48.7706 22.6658Z" fill="#66CCFF"/>
<path d="M39.6946 23.7817H38.1837C38.0364 23.783 37.8902 23.7551 37.7536 23.6996C37.6171 23.6441 37.4928 23.5622 37.3882 23.4584C37.2835 23.3547 37.2004 23.2312 37.1436 23.0951C37.0869 22.9591 37.0577 22.8132 37.0577 22.6658C37.0577 22.5184 37.0869 22.3724 37.1436 22.2364C37.2004 22.1003 37.2835 21.9769 37.3882 21.8731C37.4928 21.7694 37.6171 21.6874 37.7536 21.6319C37.8902 21.5764 38.0364 21.5485 38.1837 21.5498H39.6946C39.5472 21.5485 39.401 21.5764 39.2645 21.6319C39.1279 21.6874 39.0037 21.7694 38.899 21.8731C38.7943 21.9769 38.7112 22.1003 38.6545 22.2364C38.5978 22.3724 38.5686 22.5184 38.5686 22.6658C38.5686 22.8132 38.5978 22.9591 38.6545 23.0951C38.7112 23.2312 38.7943 23.3547 38.899 23.4584C39.0037 23.5622 39.1279 23.6441 39.2645 23.6996C39.401 23.7551 39.5472 23.783 39.6946 23.7817Z" fill="#4DA6FF"/>
<path d="M47.9241 16.2349C47.6048 18.3331 46.8475 20.1328 45.5287 21.5498H40.624C39.056 19.9936 38.1692 18.2166 37.9146 16.2349L39.5828 15.1304L41.2513 16.2349L42.9195 15.1304L44.5875 16.2349L46.2556 15.1304L47.9241 16.2349Z" fill="#12883E"/>
<path d="M39.1784 16.2349C39.4332 18.2168 40.3198 19.9938 41.8878 21.5498H40.624C39.056 19.9936 38.1692 18.2166 37.9146 16.2349L39.5828 15.1304L39.1784 16.2349Z" fill="#0F6D31"/>
<path d="M41.5742 35.4452L43.4966 32.7797L42.1743 30.0024L39.3866 33.8682C39.3656 33.8996 39.3726 33.9415 39.4005 33.9624L41.4765 35.4592C41.5079 35.4801 41.5497 35.4731 41.5707 35.4452H41.5742Z" fill="#D0EDDB"/>
<path d="M46.2253 35.703L47.6034 32.6257C47.6278 32.5699 47.572 32.5106 47.5127 32.535L46.5079 32.9851C46.473 32.999 46.4346 32.9851 46.4171 32.9502L45.0739 29.9636C45.0634 29.9392 45.039 29.9218 45.0111 29.9252L42.2269 29.9741C42.1781 29.9741 42.1467 30.0264 42.1676 30.0683L43.9609 34.0562C43.9749 34.0911 43.9609 34.1295 43.926 34.1469L42.9212 34.597C42.8654 34.6214 42.8689 34.7051 42.9282 34.7226L46.145 35.7344C46.1764 35.7448 46.2148 35.7274 46.2287 35.696L46.2253 35.703Z" fill="#D0EDDB"/>
<path d="M42.5895 39.3564H39.3029L37.8236 42.0534H42.5895C42.6279 42.0534 42.6558 42.022 42.6558 41.9871V39.4262C42.6558 39.3878 42.6244 39.3599 42.5895 39.3599V39.3564Z" fill="#D0EDDB"/>
<path d="M40.0776 35.4312L36.7771 36.115C36.7177 36.1289 36.7038 36.2092 36.7561 36.2406L37.7086 36.7918C37.74 36.8093 37.7505 36.8512 37.733 36.8861L36.0967 39.7191C36.0828 39.7435 36.0862 39.7714 36.1002 39.7924L37.7679 42.0253C37.7958 42.0637 37.8552 42.0602 37.8796 42.0183L40.0637 38.2328C40.0811 38.2014 40.123 38.1909 40.1579 38.2084L41.1138 38.7596C41.1662 38.791 41.2325 38.7387 41.2115 38.6794L40.1509 35.48C40.1404 35.4486 40.1055 35.4277 40.0741 35.4346L40.0776 35.4312Z" fill="#D0EDDB"/>
<path d="M45.6704 36.5856L47.3137 39.4326L50.3875 39.3663L48.008 35.2389C47.9905 35.2075 47.9487 35.197 47.9138 35.2145L45.6948 36.4914C45.6634 36.5089 45.6495 36.5507 45.6704 36.5856Z" fill="#D0EDDB"/>
<path d="M43.5282 40.7238L45.7681 43.2429C45.8099 43.2882 45.8867 43.2603 45.8867 43.1975V42.095C45.8867 42.0566 45.9181 42.0287 45.9565 42.0287H49.2291C49.257 42.0287 49.2815 42.0148 49.2919 41.9903L50.391 39.4294C50.4119 39.3841 50.377 39.3352 50.3282 39.3352H45.9565C45.9181 39.3352 45.8902 39.3003 45.8902 39.2654V38.1629C45.8902 38.1001 45.8134 38.0722 45.7716 38.1176L43.5282 40.6331C43.5037 40.6575 43.5037 40.6959 43.5282 40.7238Z" fill="#D0EDDB"/>
<defs>
<filter id="filter0_dd_1800_9598" x="1.20622" y="0.135971" width="61.5921" height="61.5921" filterUnits="userSpaceOnUse" color-interpolation-filters="sRGB">
<feFlood flood-opacity="0" result="BackgroundImageFix"/>
<feColorMatrix in="SourceAlpha" type="matrix" values="0 0 0 0 0 0 0 0 0 0 0 0 0 0 0 0 0 0 127 0" result="hardAlpha"/>
<feOffset dy="0.932014"/>
<feGaussianBlur stdDeviation="0.932014"/>
<feComposite in2="hardAlpha" operator="out"/>
<feColorMatrix type="matrix" values="0 0 0 0 0.0509804 0 0 0 0 0.0509804 0 0 0 0 0.0705882 0 0 0 0.04 0"/>
<feBlend mode="normal" in2="BackgroundImageFix" result="effect1_dropShadow_1800_9598"/>
<feColorMatrix in="SourceAlpha" type="matrix" values="0 0 0 0 0 0 0 0 0 0 0 0 0 0 0 0 0 0 127 0" result="hardAlpha"/>
<feOffset dy="0.932014"/>
<feGaussianBlur stdDeviation="1.39802"/>
<feComposite in2="hardAlpha" operator="out"/>
<feColorMatrix type="matrix" values="0 0 0 0 0.0509804 0 0 0 0 0.0509804 0 0 0 0 0.0705882 0 0 0 0.05 0"/>
<feBlend mode="normal" in2="effect1_dropShadow_1800_9598" result="effect2_dropShadow_1800_9598"/>
<feBlend mode="normal" in="SourceGraphic" in2="effect2_dropShadow_1800_9598" result="shape"/>
</filter>
<linearGradient id="paint0_linear_1800_9598" x1="28.8615" y1="-0.861539" x2="29.2923" y2="37.9077" gradientUnits="userSpaceOnUse">
<stop stop-color="white"/>
<stop offset="0.59" stop-color="#F9F9F9"/>
<stop offset="1" stop-color="#F2F2F2"/>
</linearGradient>
<linearGradient id="paint1_linear_1800_9598" x1="30.1101" y1="48.6047" x2="30.1101" y2="10.0371" gradientUnits="userSpaceOnUse">
<stop stop-color="#004DFF"/>
<stop offset="1" stop-color="#009CFF"/>
</linearGradient>
</defs>
</svg>
