<svg width="63" height="62" viewBox="0 0 63 62" fill="none" xmlns="http://www.w3.org/2000/svg">
<g filter="url(#filter0_dd_1800_9653)">
<rect x="0.233004" y="-0.233004" width="55.534" height="55.534" rx="27.767" transform="matrix(1 0 0 -1 3.7821 57.534)" fill="url(#paint0_linear_1800_9653)" stroke="#CACACA" stroke-width="0.466007"/>
</g>
<mask id="mask0_1800_9653" style="mask-type:alpha" maskUnits="userSpaceOnUse" x="4" y="2" width="57" height="56">
<rect x="0.233004" y="-0.233004" width="55.534" height="55.534" rx="27.767" transform="matrix(1 0 0 -1 4.22473 57.534)" fill="url(#paint1_linear_1800_9653)" stroke="#CACACA" stroke-width="0.466007"/>
</mask>
<g mask="url(#mask0_1800_9653)">
<path fill-rule="evenodd" clip-rule="evenodd" d="M10.0023 49.9999L21.5699 32.6728L26.508 31.8622L28.5409 34.9815L28.5417 34.9807C28.786 35.3561 29.2343 35.4771 29.5991 35.2443L30.2047 34.8574C31.8832 39.3399 36.2059 42.5317 41.2738 42.5317C43.3205 42.5317 45.2456 42.0111 46.9243 41.0954L54.0023 49.9999H10.0023ZM23.2642 30.4289L31.0322 20.1396L32.7838 22.4979C30.7251 24.6247 29.4575 27.5219 29.4575 30.7154C29.4575 31.4902 29.5327 32.2474 29.6754 32.9806L29.4305 33.1368L27.5348 30.2284C27.3441 29.9363 27.0397 29.8058 26.7495 29.8566L23.2642 30.4289Z" fill="url(#paint2_linear_1800_9653)"/>
<path fill-rule="evenodd" clip-rule="evenodd" d="M31.5573 14.6108H30.3478V21.7648H31.5573V14.6108Z" fill="#333333"/>
<path fill-rule="evenodd" clip-rule="evenodd" d="M19.4081 11.0495H12.2628L15.502 14.9997L12.2628 18.7009H22.1256C23.3853 18.7009 24.4123 17.6737 24.4123 16.4144V13.6516H31.5573V6H21.6945C20.435 6 19.4081 7.02737 19.4081 8.28644V11.0495ZM41.2738 20.5624C43.0482 20.5624 44.7162 21.0179 46.1677 21.818L46.1998 23.3409C46.2004 23.3817 46.2036 23.4217 46.2091 23.461L45.6701 23.9999C44.4074 23.1715 42.897 22.6894 41.2738 22.6894C36.8412 22.6894 33.2477 26.2827 33.2477 30.7155C33.2477 35.1481 36.8412 38.7417 41.2738 38.7417C45.7066 38.7417 49.3 35.1481 49.3 30.7155C49.3 29.0787 48.8098 27.5567 47.9682 26.2874L48.483 25.7728C48.5366 25.7827 48.5919 25.7885 48.6482 25.7896L50.1713 25.8217C50.9712 27.2731 51.427 28.941 51.427 30.7155C51.427 36.3228 46.8813 40.8687 41.2738 40.8687C35.6663 40.8687 31.1207 36.3228 31.1207 30.7155C31.1207 25.108 35.6663 20.5624 41.2738 20.5624ZM41.2738 25.0402C42.2444 25.0402 43.1579 25.2841 43.9567 25.7135L42.531 27.139C42.1375 27.0006 41.7147 26.9251 41.2738 26.9251C39.1806 26.9251 37.4836 28.6223 37.4836 30.7155C37.4836 32.8087 39.1806 34.5057 41.2738 34.5057C43.367 34.5057 45.0642 32.8087 45.0642 30.7155C45.0642 30.2602 44.9837 29.8236 44.8366 29.4192L46.2574 27.9982C46.6985 28.8053 46.9491 29.7311 46.9491 30.7155C46.9491 33.8499 44.4082 36.3908 41.2738 36.3908C38.1394 36.3908 35.5985 33.8499 35.5985 30.7155C35.5985 27.5811 38.1394 25.0402 41.2738 25.0402Z" fill="url(#paint3_linear_1800_9653)"/>
<path fill-rule="evenodd" clip-rule="evenodd" d="M51.4561 21.4289L41.9266 30.9583C41.3172 31.5678 40.3955 30.6463 41.0051 30.0368L50.5346 20.5072C51.1443 19.8977 52.0656 20.8194 51.4561 21.4289ZM49.9175 17.9873L50.5578 19.9326L47.1691 23.3212L47.1158 20.789L49.9175 17.9873ZM54.0023 22.0721L52.0573 21.4321L48.6686 24.8207L51.2006 24.8738L54.0023 22.0721Z" fill="#04599C"/>
</g>
<defs>
<filter id="filter0_dd_1800_9653" x="0.986062" y="0.135971" width="61.5921" height="61.5921" filterUnits="userSpaceOnUse" color-interpolation-filters="sRGB">
<feFlood flood-opacity="0" result="BackgroundImageFix"/>
<feColorMatrix in="SourceAlpha" type="matrix" values="0 0 0 0 0 0 0 0 0 0 0 0 0 0 0 0 0 0 127 0" result="hardAlpha"/>
<feOffset dy="0.932014"/>
<feGaussianBlur stdDeviation="0.932014"/>
<feComposite in2="hardAlpha" operator="out"/>
<feColorMatrix type="matrix" values="0 0 0 0 0.0509804 0 0 0 0 0.0509804 0 0 0 0 0.0705882 0 0 0 0.04 0"/>
<feBlend mode="normal" in2="BackgroundImageFix" result="effect1_dropShadow_1800_9653"/>
<feColorMatrix in="SourceAlpha" type="matrix" values="0 0 0 0 0 0 0 0 0 0 0 0 0 0 0 0 0 0 127 0" result="hardAlpha"/>
<feOffset dy="0.932014"/>
<feGaussianBlur stdDeviation="1.39802"/>
<feComposite in2="hardAlpha" operator="out"/>
<feColorMatrix type="matrix" values="0 0 0 0 0.0509804 0 0 0 0 0.0509804 0 0 0 0 0.0705882 0 0 0 0.05 0"/>
<feBlend mode="normal" in2="effect1_dropShadow_1800_9653" result="effect2_dropShadow_1800_9653"/>
<feBlend mode="normal" in="SourceGraphic" in2="effect2_dropShadow_1800_9653" result="shape"/>
</filter>
<linearGradient id="paint0_linear_1800_9653" x1="28.8615" y1="-0.861539" x2="29.2923" y2="37.9077" gradientUnits="userSpaceOnUse">
<stop stop-color="white"/>
<stop offset="0.59" stop-color="#F9F9F9"/>
<stop offset="1" stop-color="#F2F2F2"/>
</linearGradient>
<linearGradient id="paint1_linear_1800_9653" x1="28.8615" y1="-0.861539" x2="29.2923" y2="37.9077" gradientUnits="userSpaceOnUse">
<stop stop-color="white"/>
<stop offset="0.59" stop-color="#F9F9F9"/>
<stop offset="1" stop-color="#F2F2F2"/>
</linearGradient>
<linearGradient id="paint2_linear_1800_9653" x1="32.0069" y1="50.0081" x2="32.0069" y2="20.5749" gradientUnits="userSpaceOnUse">
<stop stop-color="#004DFF"/>
<stop offset="1" stop-color="#009CFF"/>
</linearGradient>
<linearGradient id="paint3_linear_1800_9653" x1="31.8489" y1="40.8783" x2="31.8489" y2="6.50826" gradientUnits="userSpaceOnUse">
<stop stop-color="#0026FF"/>
<stop offset="1" stop-color="#0038FF"/>
</linearGradient>
</defs>
</svg>
