<svg width="50" height="50" viewBox="0 0 50 50" fill="none" xmlns="http://www.w3.org/2000/svg">
<rect x="1" y="1" width="48" height="48" rx="17" fill="#212729" stroke="#F9F9F9" stroke-width="2"/>
<path d="M21.2738 31.7498H27.7263C31.738 31.7498 33.3692 28.9103 31.3755 25.4423L30.4813 23.8957C30.2638 23.5211 29.865 23.2915 29.43 23.2915H19.57C19.135 23.2915 18.7363 23.5211 18.5188 23.8957L17.6246 25.4423C15.6309 28.9103 17.2621 31.7498 21.2738 31.7498Z" fill="white"/>
<path d="M20.6213 22.0834H28.3909C28.8622 22.0834 29.1522 21.5759 28.9105 21.1772L28.1372 19.848C26.1434 16.3801 22.8567 16.3801 20.863 19.848L20.0897 21.1772C19.8601 21.5759 20.1501 22.0834 20.6213 22.0834Z" fill="white"/>
</svg>
