<svg width="392" height="149" viewBox="0 0 392 149" fill="none" xmlns="http://www.w3.org/2000/svg">
<g clip-path="url(#clip0_1801_11070)">
<path d="M74.263 95.3899C74.1077 95.8823 74.0002 96.3479 73.895 96.8307C74.4746 97.6806 74.0518 98.8472 73.3286 99.3239C72.81 101.666 72.3248 104.001 71.8945 106.361C80.8077 104.475 89.7376 102.835 98.7151 101.418C99.3372 96.4579 99.6706 91.518 99.6555 86.6626C90.9475 88.6693 82.4992 91.5694 74.263 95.3899Z" fill="#5C91F2"/>
<path d="M87.3455 56.5163C82.0549 67.6918 77.8258 79.2788 74.6946 91.1616C82.7021 87.5848 90.9096 84.8396 99.3485 82.9021C99.1527 76.8837 98.4453 70.801 95.8893 65.5284C94.0302 61.6807 91.0078 58.3295 87.3455 56.5163Z" fill="#5C91F2"/>
<path d="M71.2494 97.3952C65.8111 92.2295 60.6939 86.7287 55.9608 80.8442C52.9979 87.5368 50.9343 94.6757 49.5561 101.847C46.992 115.295 43.9557 130.911 43.7007 144.516L66.3322 140.157C66.41 125.767 68.0823 111.415 71.2299 97.3808L71.2494 97.3952Z" fill="#5C91F2"/>
<path d="M56.9562 78.1727C61.3434 83.6685 66.0491 88.831 71.0442 93.702C74.268 80.4843 78.8495 67.5663 84.7161 55.1794C83.8914 54.9762 83.0402 54.8325 82.1696 54.8013C75.4945 54.5135 69.3603 59.3405 64.8634 64.7394C61.5582 68.7122 58.7955 73.1058 56.486 77.7742C56.6548 77.8685 56.8116 78.0013 56.9562 78.1727Z" fill="#5C91F2"/>
<path d="M71.7415 110.304C70.118 120.152 69.2362 130.127 69.1345 140.132L91.0954 135.895C94.5118 126.169 97.2779 115.723 98.8319 105.239C89.7683 106.682 80.7381 108.37 71.7415 110.304Z" fill="#5C91F2"/>
<path d="M13.0527 92.9399C12.9649 93.1228 12.8614 93.2688 12.7589 93.3781C18.1579 102.136 23.5226 110.931 28.8025 119.798C29.0231 119.617 29.3087 119.491 29.6573 119.494C38.0304 119.314 46.38 118.767 54.7222 117.871C52.6632 113.443 50.5877 109.014 48.4785 104.604C47.9118 103.423 47.2966 102.186 46.2165 101.588C44.9888 100.916 43.5018 101.269 42.1774 101.753C37.7863 103.311 33.5307 106.027 28.9525 105.856C24.3743 105.685 19.6582 100.644 21.6393 96.0142C22.4706 94.0745 24.2132 92.8414 25.8537 91.6993C29.3204 89.3064 32.7699 86.9317 36.2365 84.5389C37.8259 83.4513 39.5728 82.053 39.7259 80.0152C39.8289 78.6199 39.0985 77.3454 38.4151 76.1817C35.4406 71.2121 32.4831 66.2244 29.4236 61.3275C23.4438 71.5417 17.987 82.073 13.0527 92.9399Z" fill="#073C9D"/>
<path d="M56.0474 120.825C47.4735 121.794 38.9268 122.359 30.3726 122.574C36.1383 132.289 41.853 142.041 47.4661 151.866C48.4834 153.661 45.8461 155.292 44.8449 153.516C18.894 108.112 -8.70121 63.8891 -37.8604 20.9581C-39.6972 23.7753 -40.8003 27.1514 -41.6369 30.5115C-46.0624 48.3222 -44.6794 67.2359 -40.8222 85.0314C-34.726 113.209 -22.4457 139.586 -5.33623 161.295L74.3163 162.366C68.4626 148.399 62.3562 134.557 56.0307 120.825L56.0474 120.825Z" fill="#073C9D"/>
<path d="M10.2012 90.3068C15.2289 79.2959 20.8128 68.6396 26.9203 58.301C22.434 51.2126 17.7443 44.2696 12.6113 37.7456C4.54932 27.5146 -5.12728 17.9862 -17.1144 14.7655C-23.6367 13.0307 -31.3176 13.6217 -36.3034 18.5983C-20.3261 42.113 -4.8249 66.0281 10.2183 90.2886L10.2012 90.3068Z" fill="#073C9D"/>
<path d="M349.84 102.087C344.59 106.317 338.961 109.964 332.957 112.96C333.551 120.506 334.054 128.033 334.377 135.571L348.726 141.3C350.528 129.083 350.153 114.632 349.84 102.087Z" fill="#84ACF5"/>
<path d="M330.211 103.254C329.529 102.866 329.12 102.02 329.712 101.258C329.792 101.157 329.872 101.055 329.952 100.954C328.177 85.3372 325.692 69.7854 322.434 54.341C322.055 52.5257 324.685 52.0787 325.069 53.8792C328.136 68.4984 330.534 83.2001 332.302 97.966C336.649 92.4479 340.987 86.9092 345.335 81.391C346.407 80.022 348.674 81.7094 347.597 83.0932C342.653 89.388 337.708 95.6828 332.768 101.963C333.079 104.716 333.356 107.472 333.619 110.222C339.726 107.088 345.43 103.292 350.706 98.8105C350.085 86.9985 347.404 75.0458 341.437 64.7592C338.076 58.9744 333.109 53.4463 326.856 52.4801C321.17 51.6066 315.656 54.8456 312.289 59.4907C308.903 64.145 307.32 70.0185 306.215 75.8504C303.262 91.3265 304.114 108.655 306.915 124.483L332.661 134.765C332.197 124.247 331.377 113.737 330.244 103.251L330.211 103.254Z" fill="#84ACF5"/>
<path d="M293.177 88.8479C295.267 82.7823 297.332 76.7288 299.423 70.6632C299.582 70.1537 299.913 69.8449 300.263 69.6764C297.575 66.441 294.251 63.8776 290.377 63.2768C286.402 62.6579 282.526 64.3054 279.562 67.0454C285.735 72.4673 289.961 80.5065 293.196 88.8555L293.177 88.8479Z" fill="#0A5AEB"/>
<path d="M294.176 93.439C294.108 93.6564 294.014 93.8191 293.907 93.9543C295.337 98.1712 296.584 102.359 297.732 106.174C301.169 117.572 303.209 129.237 303.094 140.843L309.905 143.556C311.581 132.26 311.181 118.87 310.89 107.324C310.592 95.7978 308.22 83.9566 302.364 73.8854C302.068 73.3893 301.752 72.8856 301.437 72.382C299.017 79.401 296.596 86.42 294.195 93.4467L294.176 93.439Z" fill="#0A5AEB"/>
<path d="M270 102.849C278.782 106.602 287.668 110.022 296.639 113.102C296.309 111.782 295.955 110.474 295.581 109.158C292.013 96.6838 287.101 79.0065 276.806 70.0492C273.853 74.1944 272.462 79.3826 271.479 84.5577C270.37 90.4084 269.864 96.5667 269.83 102.781C269.886 102.804 269.943 102.826 270 102.849Z" fill="#0A5AEB"/>
<path d="M296.772 117.903C287.491 114.772 278.301 111.287 269.244 107.442C269.441 114.579 270.241 121.738 271.455 128.584L299.348 139.69C299.317 132.424 298.374 125.121 296.772 117.903Z" fill="#0A5AEB"/>
<path d="M376.832 63.7744C379.057 50.0102 381.759 36.3468 384.948 22.828C387.868 24.245 390.604 26.3448 392.88 28.7592C397.934 34.0908 401.441 40.6731 403.999 47.7171C395.076 53.2994 386.024 58.6665 376.839 63.7611L376.832 63.7744Z" fill="#0A5AEB"/>
<path d="M370.504 90.9533C364.345 86.4937 358.125 82.0482 351.51 78.441C348.849 76.9806 346.121 75.6407 343.327 74.5145C343.571 73.5004 343.794 72.4909 344.038 71.4767C348.102 55.3063 354.692 39.6219 365.669 27.9956C368.137 25.3861 370.904 22.9417 374.279 21.9366C376.962 21.1477 379.753 21.3513 382.473 22.2255C377.139 44.7759 373.139 67.7459 370.483 90.958L370.504 90.9533Z" fill="#0A5AEB"/>
<path d="M367.287 166.698C366.905 138.022 368.573 109.516 372.231 81.4169C383.376 74.9558 394.691 68.8285 406.161 63.0263C409.108 77.5897 410.274 92.3278 411.428 107.022C411.525 108.315 411.615 109.715 410.963 110.76C410.01 112.282 407.984 112.42 406.219 112.404C402.369 112.377 398.519 112.35 394.683 112.331C392.844 112.321 390.897 112.348 389.422 113.407C385.892 115.961 387.739 122.522 391.479 125.171C395.219 127.819 399.854 128.027 404.142 129.211C405.433 129.568 406.814 130.113 407.551 131.307C408.202 132.368 408.23 133.689 408.216 134.926C408.004 154.915 407.312 174.874 406.155 194.776L366.579 167.908C366.997 167.731 367.306 167.334 367.3 166.707L367.287 166.698Z" fill="#0A5AEB"/>
<path d="M347.974 81.2225C350.232 82.4334 352.451 83.7459 354.619 85.1162C359.376 88.1205 363.955 91.4436 368.521 94.7581C365.902 118.869 364.72 143.254 365.038 167.737L341.014 151.438C336.061 126.972 336.203 101.631 341.355 77.8212C344.004 79.0585 347.728 81.0933 347.961 81.2138L347.974 81.2225Z" fill="#0A5AEB"/>
<path d="M374.184 77.9017C374.666 74.3811 375.188 70.8512 375.736 67.3388C385.488 61.9671 395.075 56.3179 404.521 50.4089C405.554 53.6065 406.403 56.8461 407.13 60.1136C395.988 65.7448 385.017 71.6755 374.184 77.9017Z" fill="#0A5AEB"/>
<path d="M396.97 139.044C396.545 138.953 396.194 138.787 395.917 138.546C393.124 142.065 390.407 145.665 387.756 149.292C395.938 152.109 404.113 154.949 412.294 157.766C414.979 153.789 417.418 149.635 419.513 145.37C412.127 142.584 404.642 140.435 396.977 139.021L396.97 139.044Z" fill="#84ACF5"/>
<path d="M368.663 171.434C382.769 147.825 399.545 126.317 418.736 107.232C412.898 103.231 405.388 104.076 399.091 106.36C386.988 110.752 376.938 119.702 369.002 130.159C361.073 140.593 351.825 152.701 345.851 164.577L368.582 173.654C368.274 173.001 368.216 172.209 368.679 171.466L368.663 171.434Z" fill="#84ACF5"/>
</g>
<defs>
<clipPath id="clip0_1801_11070">
<rect width="392" height="149" fill="white"/>
</clipPath>
</defs>
</svg>
