<svg width="393" height="195" viewBox="0 0 393 195" fill="none" xmlns="http://www.w3.org/2000/svg">
<path d="M94.3297 106.366C94.2088 106.879 94.1367 107.363 94.0687 107.863C94.771 108.704 94.4254 109.923 93.6926 110.451C93.3537 112.88 93.0501 115.301 92.8078 117.745C102.212 115.334 111.658 113.174 121.175 111.24C121.381 106.12 121.279 101.035 120.809 96.0561C111.636 98.5803 102.826 102.007 94.3297 106.366Z" fill="#5C91F2"/>
<path d="M105.288 66.8567C100.688 78.3861 97.2537 90.2736 95.0138 102.401C103.198 98.3764 111.671 95.1788 120.463 92.7818C119.704 86.734 118.395 80.6485 115.195 75.4763C112.866 71.7015 109.347 68.4882 105.288 66.8567Z" fill="#5C91F2"/>
<path d="M90.5753 109.174C84.366 104.285 78.4648 99.0436 72.934 93.3974C70.4176 100.257 68.8908 107.517 68.0902 114.773C66.6104 128.38 64.8299 144.183 65.801 157.825L89.2847 152.27C88.055 137.85 88.5114 123.385 90.5535 109.161L90.5753 109.174Z" fill="#5C91F2"/>
<path d="M74.7082 90.5728C79.878 95.8756 85.3561 100.826 91.1152 105.467C93.3328 91.9842 97.0217 78.7313 102.126 65.9452C101.231 65.7842 100.312 65.6846 99.3832 65.6992C92.2572 65.7628 86.1753 70.9491 81.8871 76.6248C78.7358 80.8009 76.2 85.3722 74.1716 90.1964C74.3597 90.2824 74.5386 90.4078 74.7082 90.5728Z" fill="#5C91F2"/>
<path d="M92.5222 121.187C91.6948 131.246 91.6716 141.395 92.4848 151.532L115.562 146.073C118.317 136.042 120.31 125.316 121.005 114.617C111.452 116.56 101.958 118.75 92.5222 121.187Z" fill="#5C91F2"/>
<path d="M13.7467 101.954C13.7002 102.152 13.6277 102.318 13.5468 102.449C21.5123 109.403 29.4509 116.4 37.3179 123.488C37.5057 123.257 37.7766 123.063 38.1474 122.975C46.988 120.623 55.7098 117.925 64.3345 114.897C61.019 111.207 57.6858 107.52 54.3215 103.86C53.4186 102.88 52.4501 101.86 51.1511 101.571C49.6764 101.248 48.1885 101.973 46.9064 102.78C42.6437 105.41 38.8206 109.112 33.9181 110.141C29.0156 111.17 22.7236 107.587 23.6444 102.652C24.0316 100.584 25.5662 98.9532 27.0158 97.4357C30.0841 94.2487 33.1389 91.0835 36.2072 87.8966C37.6164 86.4445 39.1134 84.6547 38.7557 82.6698C38.5089 81.3111 37.4085 80.2849 36.3861 79.3521C31.9606 75.3835 27.5487 71.3931 23.0517 67.516C19.3126 78.8231 16.2095 90.2966 13.7467 101.954Z" fill="#073C9D"/>
<path d="M66.6732 117.532C57.8356 120.686 48.9238 123.446 39.915 125.876C48.4996 133.634 57.0398 141.439 65.4906 149.341C67.0258 150.786 64.6472 153.027 63.1338 151.595C24.0676 115.082 -16.4398 80.1211 -58.2752 46.7986C-59.5035 49.9605 -59.812 53.4642 -59.8422 56.8834C-59.993 75.0047 -53.708 92.6663 -45.0865 108.619C-31.4472 133.882 -11.7144 155.821 11.9461 172.057L96.6155 152.363C86.8541 140.577 76.857 128.976 66.6555 117.536L66.6732 117.532Z" fill="#073C9D"/>
<path d="M10.8085 100.095C13.3304 88.2927 16.532 76.6839 20.3696 65.2417C13.8082 59.6528 7.0684 54.2553 -0.0344269 49.3725C-11.1862 41.7186 -23.8701 35.1542 -37.3949 35.2026C-44.7495 35.2457 -52.739 37.8069 -56.7545 43.8469C-33.8282 62.1026 -11.3044 80.8637 10.822 100.073L10.8085 100.095Z" fill="#073C9D"/>
<path d="M341.604 110.073C336.848 115.6 331.591 120.633 325.826 125.104C327.78 132.537 329.636 139.973 331.306 147.464L347.358 149.722C347.092 137.015 344.147 122.595 341.604 110.073Z" fill="#84ACF5"/>
<path d="M320.118 115.953C319.334 115.729 318.755 114.979 319.242 114.069C319.308 113.948 319.374 113.826 319.44 113.705C314.82 98.4455 309.465 83.4248 303.319 68.7004C302.6 66.9688 305.281 65.8784 306.002 67.5941C311.802 81.536 316.915 95.7237 321.378 110.13C324.965 103.525 328.538 96.9024 332.125 90.2978C333.007 88.661 335.684 89.8039 334.799 91.4567C330.723 98.9871 326.647 106.518 322.573 114.032C323.385 116.722 324.163 119.424 324.924 122.124C330.778 117.485 336.092 112.281 340.836 106.492C338.099 94.7744 333.174 83.4178 325.097 74.5363C320.549 69.5429 314.361 65.1992 307.63 65.7524C301.51 66.261 296.297 70.8595 293.584 76.3479C290.854 81.85 290.23 88.1377 290.102 94.2668C289.737 110.537 293.692 127.742 299.426 142.962L328.254 147.018C325.909 136.563 323.193 126.202 320.152 115.942L320.118 115.953Z" fill="#84ACF5"/>
<path d="M273.374 104.224C274.222 99.2397 275.051 94.2692 275.899 89.2849C275.958 88.8692 276.179 88.5741 276.434 88.3818C273.872 86.4234 270.896 85.0916 267.746 85.3495C264.513 85.6121 261.661 87.5751 259.677 90.1985C265.292 93.1733 269.712 98.4912 273.39 104.226L273.374 104.224Z" fill="#0A5AEB"/>
<path d="M275.767 107.496C275.742 107.672 275.69 107.811 275.624 107.933C277.302 110.843 278.831 113.765 280.234 116.424C284.432 124.368 287.571 132.767 289.015 141.514L294.707 142.315C294.526 133.517 292.443 123.523 290.689 114.895C288.933 106.283 285.51 97.8118 279.594 91.3051C279.296 90.986 278.983 90.6647 278.669 90.3434C277.702 96.0609 276.734 101.779 275.783 107.498L275.767 107.496Z" fill="#0A5AEB"/>
<path d="M257.128 118.864C264.602 120.095 272.115 121.054 279.649 121.739C279.211 120.796 278.755 119.868 278.282 118.937C273.784 110.119 267.523 97.5962 258.153 92.6907C256.361 96.3846 255.95 100.582 255.86 104.695C255.761 109.345 256.182 114.116 256.984 118.843C257.032 118.85 257.08 118.857 257.128 118.864Z" fill="#0A5AEB"/>
<path d="M281.014 124.784C273.153 124.102 265.317 123.13 257.539 121.857C258.662 127.314 260.272 132.677 262.171 137.721L286.027 141.078C285.019 135.49 283.275 130.043 281.014 124.784Z" fill="#0A5AEB"/>
<path d="M366.298 151.164C384.511 128.453 400.937 104.414 415.48 79.2786C410.383 66.1367 404.939 53.1417 399.164 40.2958C387.659 49.8628 377.505 60.8428 367.388 71.7952C366.502 72.763 365.554 73.82 365.436 75.1241C365.266 77.0243 366.841 78.5829 368.295 79.8311C371.466 82.56 374.637 85.2888 377.792 88.0154C379.304 89.3206 380.882 90.733 381.43 92.6363C382.727 97.205 377.118 101.144 372.402 100.595C367.685 100.046 363.758 96.9005 359.506 94.7859C358.226 94.1493 356.754 93.5998 355.406 94.0297C354.21 94.4159 353.363 95.4544 352.602 96.4562C340.299 112.629 328.408 129.12 316.932 145.898L366.123 152.639C365.892 152.199 365.886 151.66 366.282 151.162L366.298 151.164Z" fill="#0A5AEB"/>
<path d="M436.842 95.6056C434.226 94.9604 431.578 94.4249 428.936 93.9715C423.14 92.9768 417.291 92.3659 411.458 91.7572C398.501 113.039 384.191 133.511 368.586 152.986L398.563 157.105C417.97 140.97 433.735 120.475 444.418 97.6172C441.464 96.7124 437.125 95.6781 436.858 95.6079L436.842 95.6056Z" fill="#0A5AEB"/>
<path d="M145.92 152.119C142.242 161.315 123.848 161.929 111.893 163.155C63.1499 168.654 16.8536 169.672 -30.9877 172.517V156.245C4.40126 141.003 52.4266 129.372 107.656 123.192C109.201 123.014 110.764 122.849 112.328 122.683C117.11 122.18 121.942 121.714 126.822 121.291C128.588 121.138 130.347 120.991 132.119 120.85C132.481 120.819 132.824 120.795 133.186 120.77C136.178 120.531 139.195 120.316 142.223 120.114C142.922 120.059 143.621 120.016 144.332 119.967C145.399 119.9 146.472 119.832 147.551 119.771C151.242 119.55 154.952 119.348 158.698 119.17C148.82 122.009 140.433 126 136.724 133.112C133.965 139.856 148.679 144.761 145.92 152.119Z" fill="#84ACF5"/>
<path d="M291.229 161.315C293.988 157.023 303.185 154.571 311.462 153.345C352.044 149.335 390.167 153.516 428.849 157.52V156.245C375.048 133.075 292.044 118.226 198.93 118.226C185.276 118.226 171.855 118.551 158.698 119.17C148.821 122.008 140.433 126 136.724 133.112C133.965 139.856 148.68 144.761 145.921 152.119C142.242 161.315 123.848 161.928 111.893 163.155C63.1501 168.654 16.8537 169.672 -30.9876 172.517V195H205.515C225.166 191.873 245.239 189.187 265.478 186.453C284.791 184.001 284.791 171.738 291.229 161.315Z" fill="#084BC4"/>
<path d="M428.849 157.52V195H205.515C225.159 191.873 245.239 189.188 265.478 186.453C284.791 184.001 284.791 171.738 291.229 161.315C293.988 157.024 303.184 154.571 311.462 153.345C352.044 149.335 390.167 153.517 428.849 157.52Z" fill="#84ACF5"/>
<path d="M126.975 133.057C125.234 137.827 131.574 140.42 135.694 143.51C137.619 144.963 139.17 146.643 139.287 148.63C139.434 151.046 137.263 153.198 134.449 154.595C131.089 156.263 126.84 156.735 122.794 157.097C117.993 157.52 113.18 157.912 108.379 158.317C98.7412 159.139 89.0969 159.954 79.4526 160.776C60.1702 162.413 40.8816 164.05 21.593 165.681C4.06404 167.17 -13.471 168.654 -31 170.144V168.311C-30.4789 168.262 -29.9516 168.219 -29.4304 168.176C-10.2154 166.545 8.98122 164.914 28.1962 163.283C47.4113 161.652 66.6202 160.022 85.8229 158.391C95.4672 157.575 105.105 156.754 114.756 155.938C119.189 155.564 123.812 155.386 128.128 154.565C131.623 153.903 135.258 152.45 136.282 149.973C137.932 146.03 130.936 143.216 127.668 140.696C125.467 139.004 123.897 137.054 123.891 134.767C123.879 132.1 125.737 129.605 128.287 127.618C131.04 125.466 134.608 123.848 137.993 122.18C139.403 121.493 140.807 120.801 142.211 120.114C142.91 120.059 143.609 120.016 144.32 119.967C145.387 119.899 146.46 119.832 147.539 119.771C146.73 120.163 145.92 120.561 145.111 120.96C141.42 122.769 137.607 124.504 134.087 126.447C130.899 128.207 127.968 130.304 126.969 133.057H126.975Z" fill="#5C91F2"/>
<path d="M115.406 134.326C115.565 136.447 117.257 137.894 119.661 139.157C121.788 140.267 124.333 141.432 124.829 143.333C126.074 148.066 116.203 149.402 111.335 150.322C95.5162 153.326 79.2748 155.203 62.9782 156.576C46.3935 157.98 29.7229 158.869 13.0768 159.832C-1.61956 160.684 -16.3037 161.542 -30.9939 162.394V160.555C-14.4766 159.599 2.04074 158.636 18.5458 157.673C34.8546 156.729 51.1696 155.828 67.3804 154.35C83.3888 152.897 99.3175 150.874 114.786 147.729C117.214 147.232 120.752 146.582 121.905 144.872C123.057 143.155 120.354 141.831 118.588 140.917C116.203 139.685 114.118 138.428 113.18 136.435C112.26 134.498 112.536 132.321 113.53 130.42C115.743 126.196 121.347 123.578 126.81 121.291C128.575 121.138 130.335 120.991 132.107 120.85C132.469 120.819 132.812 120.795 133.174 120.77C130.764 121.849 128.238 122.836 125.847 123.891C120.421 126.282 115.05 129.617 115.4 134.326H115.406Z" fill="#D3FFFF"/>
<path d="M428.848 162.652V164.504C417.383 163.308 405.875 162.254 394.342 161.334C376.341 159.899 358.273 158.802 340.18 158.041C331.627 157.68 322.767 157.263 314.441 158.888C307.875 160.169 301.572 162.848 298.402 167.011C295.294 171.089 295.563 175.883 293.301 180.144C292.167 182.272 290.425 184.24 287.777 185.681C284.944 187.232 281.523 188.151 278.047 188.863C269.549 190.598 260.879 191.99 252.302 193.535C249.592 194.025 246.876 194.509 244.166 195H233.571C241.861 193.504 250.162 192.014 258.451 190.518C262.897 189.721 267.336 188.918 271.768 188.121C275.496 187.446 279.346 186.858 282.798 185.668C285.956 184.583 288.39 182.995 289.917 180.849C291.351 178.838 291.946 176.582 292.535 174.405C293.16 172.125 293.73 169.813 294.999 167.643C296.238 165.497 298.145 163.584 300.646 161.99C312.945 154.136 331.719 155.785 347.2 156.509C365.366 157.367 383.49 158.556 401.553 160.083C410.676 160.856 419.774 161.714 428.855 162.652H428.848Z" fill="#5C91F2"/>
<path d="M428.848 169.01V170.867C419.646 169.782 410.4 168.814 401.148 167.943C384.171 166.361 367.12 165.141 350.032 164.289C343.031 163.939 335.974 163.529 328.966 163.988C322.816 164.387 316.464 165.589 311.891 168.489C306.691 171.787 304.919 176.612 301.848 180.775C299.015 184.614 294.92 188.047 290.058 190.824C287.25 192.431 284.178 193.835 280.922 195H274.491C281.572 193.111 288.004 190.101 293.025 186.281C295.14 184.681 296.98 182.921 298.525 181.051C300.241 178.967 301.504 176.741 302.921 174.558C305.625 170.383 309.285 166.692 315.502 164.559C321.222 162.597 327.783 162.032 334.134 161.959C341.676 161.867 349.26 162.388 356.764 162.805C373.87 163.755 390.921 165.074 407.898 166.747C414.9 167.44 421.877 168.194 428.848 169.01Z" fill="#D3FFFF"/>
</svg>
