<svg width="150" height="150" viewBox="0 0 150 150" fill="none" xmlns="http://www.w3.org/2000/svg">
<g id="empty 1">
<path id="Vector" d="M145.687 144.25C145.112 145.058 144.353 145.717 143.473 146.174C142.593 146.63 141.617 146.87 140.625 146.875H9.375C8.38344 146.87 7.40719 146.63 6.52692 146.174C5.64664 145.717 4.8876 145.058 4.3125 144.25C29 89.3438 23.875 100.75 31.25 84.375H118.75C126.687 102.031 120.812 89 145.687 144.25Z" fill="#4795EA"/>
<path id="Vector_2" d="M31.2503 43.75V84.375C23.3128 102.031 29.1878 89 4.31282 144.25C3.52905 143.205 3.11167 141.931 3.12532 140.625V96.875L31.2503 43.75Z" fill="url(#paint0_linear_3353_745)"/>
<path id="Vector_3" d="M146.875 96.875V140.625C146.889 141.931 146.471 143.205 145.687 144.25C121 89.3438 126.125 100.75 118.75 84.375V43.75L146.875 96.875Z" fill="url(#paint1_linear_3353_745)"/>
<path id="Vector_4" d="M146.875 96.8752V140.625C146.875 142.283 146.217 143.873 145.044 145.045C143.872 146.217 142.283 146.875 140.625 146.875H9.375C7.7174 146.875 6.12769 146.217 4.95558 145.045C3.78348 143.873 3.125 142.283 3.125 140.625V96.8752H56.5313C57.2849 96.8667 58.0162 97.1308 58.5905 97.6189C59.1647 98.1071 59.5432 98.7863 59.6563 99.5315C60.1381 102.359 61.3889 104.999 63.2715 107.163C65.1541 109.326 67.596 110.93 70.3296 111.798C73.0632 112.667 75.983 112.766 78.7691 112.085C81.5552 111.404 84.1001 109.969 86.125 107.938C88.397 105.645 89.9128 102.711 90.4688 99.5315C90.5818 98.7863 90.9603 98.1071 91.5345 97.6189C92.1088 97.1308 92.8401 96.8667 93.5938 96.8752H146.875Z" fill="url(#paint2_linear_3353_745)"/>
<path id="Vector_5" d="M118.75 43.75H31.25V84.375H118.75V43.75Z" fill="url(#paint3_linear_3353_745)"/>
<path id="Vector_6" d="M103.125 31.2504C103.132 25.8961 101.611 20.6509 98.7395 16.1314C95.8684 11.612 91.7668 8.006 86.9168 5.73731C82.0668 3.46863 76.67 2.63152 71.3607 3.32436C66.0513 4.01721 61.0501 6.21123 56.9447 9.64855C52.8393 13.0859 49.8005 17.6237 48.1852 22.7286C46.57 27.8335 46.4456 33.2934 47.8265 38.4666C49.2074 43.6399 52.0364 48.3114 55.9809 51.9322C59.9254 55.553 64.8215 57.9726 70.0937 58.9067L73.5937 65.9692C73.7297 66.224 73.9323 66.4372 74.18 66.5858C74.4277 66.7344 74.7111 66.8129 75 66.8129C75.2888 66.8129 75.5723 66.7344 75.82 66.5858C76.0676 66.4372 76.2703 66.224 76.4062 65.9692L79.9062 58.9067C86.4069 57.755 92.2953 54.3532 96.5402 49.297C100.785 44.2407 103.116 37.8523 103.125 31.2504Z" fill="url(#paint4_linear_3353_745)"/>
<path id="Vector_7" d="M79.4054 31.2501L86.5929 24.0938C87.1813 23.5054 87.5119 22.7073 87.5119 21.8751C87.5119 21.0429 87.1813 20.2448 86.5929 19.6563C86.0044 19.0679 85.2063 18.7373 84.3741 18.7373C83.5419 18.7373 82.7438 19.0679 82.1554 19.6563L74.9991 26.8438L67.8429 19.6563C67.5515 19.365 67.2056 19.1338 66.8249 18.9762C66.4442 18.8185 66.0362 18.7373 65.6241 18.7373C64.7919 18.7373 63.9938 19.0679 63.4054 19.6563C62.8169 20.2448 62.4863 21.0429 62.4863 21.8751C62.4863 22.7073 62.8169 23.5054 63.4054 24.0938L70.5929 31.2501L63.4054 38.4063C63.114 38.6977 62.8829 39.0436 62.7252 39.4243C62.5675 39.805 62.4863 40.213 62.4863 40.6251C62.4863 41.4573 62.8169 42.2554 63.4054 42.8438C63.9938 43.4323 64.7919 43.7629 65.6241 43.7629C66.0362 43.7629 66.4442 43.6817 66.8249 43.524C67.2056 43.3663 67.5515 43.1352 67.8429 42.8438L74.9991 35.6563L82.1554 42.8438C82.7438 43.4323 83.5419 43.7629 84.3741 43.7629C85.2063 43.7629 86.0044 43.4323 86.5929 42.8438C87.1813 42.2554 87.5119 41.4573 87.5119 40.6251C87.5119 39.7929 87.1813 38.9948 86.5929 38.4063L79.4054 31.2501Z" fill="#FFB369"/>
<path id="Vector_8" d="M34.375 118.75H15.625C13.8991 118.75 12.5 120.149 12.5 121.875V134.375C12.5 136.101 13.8991 137.5 15.625 137.5H34.375C36.1009 137.5 37.5 136.101 37.5 134.375V121.875C37.5 120.149 36.1009 118.75 34.375 118.75Z" fill="url(#paint5_linear_3353_745)"/>
<path id="Vector_9" d="M28.125 131.25H21.875C21.0462 131.25 20.2513 130.921 19.6653 130.335C19.0792 129.749 18.75 128.954 18.75 128.125C18.75 127.296 19.0792 126.501 19.6653 125.915C20.2513 125.329 21.0462 125 21.875 125H28.125C28.9538 125 29.7487 125.329 30.3347 125.915C30.9208 126.501 31.25 127.296 31.25 128.125C31.25 128.954 30.9208 129.749 30.3347 130.335C29.7487 130.921 28.9538 131.25 28.125 131.25Z" fill="#FFB369"/>
<path id="Vector_10" d="M53.125 137.5H46.875C46.0462 137.5 45.2513 137.171 44.6653 136.585C44.0792 135.999 43.75 135.204 43.75 134.375C43.75 133.546 44.0792 132.751 44.6653 132.165C45.2513 131.579 46.0462 131.25 46.875 131.25H53.125C53.9538 131.25 54.7487 131.579 55.3347 132.165C55.9208 132.751 56.25 133.546 56.25 134.375C56.25 135.204 55.9208 135.999 55.3347 136.585C54.7487 137.171 53.9538 137.5 53.125 137.5ZM59.375 125H46.875C46.0462 125 45.2513 124.671 44.6653 124.085C44.0792 123.499 43.75 122.704 43.75 121.875C43.75 121.046 44.0792 120.251 44.6653 119.665C45.2513 119.079 46.0462 118.75 46.875 118.75H59.375C60.2038 118.75 60.9987 119.079 61.5847 119.665C62.1708 120.251 62.5 121.046 62.5 121.875C62.5 122.704 62.1708 123.499 61.5847 124.085C60.9987 124.671 60.2038 125 59.375 125Z" fill="#4795EA"/>
</g>
<defs>
<linearGradient id="paint0_linear_3353_745" x1="17.1878" y1="144.25" x2="17.1878" y2="43.75" gradientUnits="userSpaceOnUse">
<stop stop-color="#54A5FF"/>
<stop offset="1" stop-color="#8AD3FE"/>
</linearGradient>
<linearGradient id="paint1_linear_3353_745" x1="132.813" y1="144.25" x2="132.813" y2="4.91924e-06" gradientUnits="userSpaceOnUse">
<stop stop-color="#54A5FF"/>
<stop offset="1" stop-color="#8AD3FE"/>
</linearGradient>
<linearGradient id="paint2_linear_3353_745" x1="75" y1="146.875" x2="75" y2="96.8752" gradientUnits="userSpaceOnUse">
<stop stop-color="#54A5FF"/>
<stop offset="1" stop-color="#8AD3FE"/>
</linearGradient>
<linearGradient id="paint3_linear_3353_745" x1="75" y1="84.375" x2="75" y2="1.93429e-06" gradientUnits="userSpaceOnUse">
<stop stop-color="#54A5FF"/>
<stop offset="1" stop-color="#8AD3FE"/>
</linearGradient>
<linearGradient id="paint4_linear_3353_745" x1="75" y1="66.8129" x2="75" y2="3.12541" gradientUnits="userSpaceOnUse">
<stop stop-color="#D3E6F5"/>
<stop offset="1" stop-color="#F0F7FC"/>
</linearGradient>
<linearGradient id="paint5_linear_3353_745" x1="12.5" y1="128.125" x2="37.5" y2="128.125" gradientUnits="userSpaceOnUse">
<stop stop-color="#D3E6F5"/>
<stop offset="1" stop-color="#F0F7FC"/>
</linearGradient>
</defs>
</svg>
