<svg width="170" height="170" viewBox="0 0 170 170" fill="none" xmlns="http://www.w3.org/2000/svg">
<g id="vuesax/bulk/bag-cross">
<g id="bag-cross">
<path id="Vector" opacity="0.4" d="M136.283 39.5255H133.449L109.508 15.5838C107.595 13.6713 104.479 13.6713 102.495 15.5838C100.583 17.4963 100.583 20.613 102.495 22.5963L119.424 39.5255H50.5743L67.5035 22.5963C69.416 20.6838 69.416 17.5671 67.5035 15.5838C65.591 13.6713 62.4743 13.6713 60.491 15.5838L36.6202 39.5255H33.7868C27.4118 39.5255 14.166 39.5255 14.166 57.6588C14.166 64.5296 15.5827 69.063 18.5577 72.038C20.2577 73.8088 22.3118 74.7296 24.5077 75.2255C26.5618 75.7213 28.7577 75.7921 30.8827 75.7921H139.116C141.312 75.7921 143.366 75.6505 145.349 75.2255C151.299 73.8088 155.833 69.5588 155.833 57.6588C155.833 39.5255 142.587 39.5255 136.283 39.5255Z" fill="url(#paint0_linear_3357_325)"/>
<path id="Vector_2" d="M139.258 75.7928H30.8828C28.8286 75.7928 26.562 75.7219 24.5078 75.1553L33.4328 129.626C35.487 141.809 40.7995 155.834 64.387 155.834H104.124C127.995 155.834 132.245 143.864 134.795 130.476L145.491 75.1553C143.508 75.6511 141.383 75.7928 139.258 75.7928ZM98.5995 126.722C97.537 127.784 96.1911 128.28 94.8453 128.28C93.4995 128.28 92.1536 127.784 91.0911 126.722L85.0703 120.701L78.837 126.934C77.7745 127.997 76.4286 128.493 75.0828 128.493C73.737 128.493 72.3911 127.997 71.3286 126.934C69.2745 124.88 69.2745 121.48 71.3286 119.426L77.562 113.193L71.5411 107.172C69.487 105.118 69.487 101.718 71.5411 99.6636C73.5953 97.6094 76.9953 97.6094 79.0495 99.6636L85.0703 105.684L90.8786 99.8761C92.9328 97.8219 96.3328 97.8219 98.387 99.8761C100.441 101.93 100.441 105.33 98.387 107.384L92.5786 113.193L98.5995 119.214C100.724 121.339 100.724 124.668 98.5995 126.722Z" fill="url(#paint1_linear_3357_325)"/>
</g>
</g>
<defs>
<linearGradient id="paint0_linear_3357_325" x1="85.0139" y1="75.8091" x2="85.0139" y2="15.0479" gradientUnits="userSpaceOnUse">
<stop stop-color="#0026FF"/>
<stop offset="1" stop-color="#0038FF"/>
</linearGradient>
<linearGradient id="paint1_linear_3357_325" x1="85.0119" y1="155.857" x2="85.0119" y2="76.3313" gradientUnits="userSpaceOnUse">
<stop stop-color="#0026FF"/>
<stop offset="1" stop-color="#0038FF"/>
</linearGradient>
</defs>
</svg>
