<svg width="108" height="110" viewBox="0 0 108 110" fill="none" xmlns="http://www.w3.org/2000/svg">
<g id="store 1" clip-path="url(#clip0_3349_1250)">
<g id="Group">
<path id="Vector" d="M16.6992 43.999C15.2867 44.002 13.9328 44.5799 12.933 45.6065C11.9333 46.6331 11.3689 48.025 11.3633 49.4782V93.5053C11.3633 102.554 18.5972 109.986 27.392 109.986H80.8664C89.6613 109.986 96.8952 102.554 96.8952 93.5053V49.4782C96.8895 48.025 96.3252 46.6331 95.3254 45.6065C94.3257 44.5799 92.9717 44.002 91.5592 43.999H16.6992Z" fill="#82BBFB"/>
<path id="Vector_2" d="M32.7603 -0.0175781C24.1639 -0.0175781 16.3291 5.16096 12.7844 13.2185L8.05405 23.9835C3.54103 27.9926 0.587891 33.9097 0.587891 40.55C0.587891 52.6369 10.2364 62.5636 21.9839 62.5636C28.7775 62.5636 34.1174 58.8024 38.044 53.6679C41.9706 58.8035 47.3514 62.5636 54.1458 62.5636C60.9078 62.5636 66.2463 58.8369 70.1746 53.7431C74.1029 58.8379 79.4301 62.5636 86.1929 62.5636C97.9404 62.5636 107.589 52.6369 107.589 40.55C107.589 34.0682 104.715 28.3659 100.394 24.3703L95.1105 12.3268C91.8045 4.81209 84.5094 -0.0175781 76.4921 -0.0175781H32.7603Z" fill="url(#paint0_linear_3349_1250)"/>
<path id="Vector_3" d="M96.8946 78.1084C93.2016 79.6642 89.475 81.1512 85.7216 82.5669C61.5477 91.6796 36.62 97.6968 12.7734 100.175C15.2855 105.928 20.9055 109.984 27.3923 109.984H80.866C89.6608 109.984 96.8946 102.552 96.8946 93.5037V78.1084Z" fill="#65A3FC"/>
<path id="Vector_4" d="M54.1441 71.4912C45.3492 71.4912 38.084 78.9231 38.084 87.9718V104.506C38.0897 105.965 38.6583 107.362 39.6648 108.389C40.6714 109.417 42.0334 109.991 43.4513 109.985H64.8473C66.258 109.98 67.6093 109.4 68.6068 108.374C69.6043 107.348 70.1672 105.958 70.1728 104.506V87.9718C70.1728 78.9231 62.939 71.4912 54.1441 71.4912Z" fill="url(#paint1_linear_3349_1250)"/>
<path id="Vector_5" d="M70.1724 87.9707C59.5019 91.3664 48.7548 94.155 38.084 96.2968V104.505C38.0897 105.964 38.6583 107.36 39.6648 108.388C40.6713 109.415 42.0333 109.99 43.4512 109.984H64.847C66.2576 109.978 67.6089 109.399 68.6064 108.373C69.6039 107.346 70.1668 105.956 70.1724 104.505V87.9707Z" fill="url(#paint2_linear_3349_1250)"/>
</g>
</g>
<defs>
<linearGradient id="paint0_linear_3349_1250" x1="54.0994" y1="62.5808" x2="54.0994" y2="0.894631" gradientUnits="userSpaceOnUse">
<stop stop-color="#004DFF"/>
<stop offset="1" stop-color="#009CFF"/>
</linearGradient>
<linearGradient id="paint1_linear_3349_1250" x1="54.1317" y1="109.996" x2="54.1317" y2="72.0523" gradientUnits="userSpaceOnUse">
<stop stop-color="#004DFF"/>
<stop offset="1" stop-color="#009CFF"/>
</linearGradient>
<linearGradient id="paint2_linear_3349_1250" x1="54.1315" y1="109.99" x2="54.1315" y2="88.2916" gradientUnits="userSpaceOnUse">
<stop stop-color="#004DFF"/>
<stop offset="1" stop-color="#009CFF"/>
</linearGradient>
<clipPath id="clip0_3349_1250">
<rect width="107" height="110" fill="white" transform="translate(0.582031)"/>
</clipPath>
</defs>
</svg>
